<svg version="1.1" xmlns="http://www.w3.org/2000/svg" viewBox="0 0 1712.1710020285411 1035.8108139377891" width="3424.3420040570822" height="2071.6216278755783">
  <!-- svg-source:excalidraw -->
  
  <defs>
    <style class="style-fonts">
      @font-face {
        font-family: "Virgil";
        src: url("https://excalidraw.com/Virgil.woff2");
      }
      @font-face {
        font-family: "Cascadia";
        src: url("https://excalidraw.com/Cascadia.woff2");
      }
    </style>
    
  </defs>
  <rect x="0" y="0" width="1712.1710020285411" height="1035.8108139377891" fill="#ffffff"></rect><g stroke-linecap="round" transform="translate(10 160.15912619735946) rotate(0 91.73476632610578 33.365386130007664)"><path d="M16.68 0 M16.68 0 C69.45 0.61, 118.83 0.07, 166.79 0 M16.68 0 C71.78 -0.8, 127 -0.47, 166.79 0 M166.79 0 C176.9 -1.32, 184.33 3.61, 183.47 16.68 M166.79 0 C178.36 -0.65, 185.57 4.19, 183.47 16.68 M183.47 16.68 C183.9 26.5, 183.31 35.63, 183.47 50.05 M183.47 16.68 C184.18 28.41, 183.45 39.63, 183.47 50.05 M183.47 50.05 C181.52 61.78, 176.73 66.66, 166.79 66.73 M183.47 50.05 C184.84 59.43, 177.78 67.56, 166.79 66.73 M166.79 66.73 C116.36 65.19, 65.33 67.47, 16.68 66.73 M166.79 66.73 C130.33 65.89, 93.33 66.63, 16.68 66.73 M16.68 66.73 C5.56 66.2, 0.28 59.62, 0 50.05 M16.68 66.73 C4.5 65.81, 2.29 61.47, 0 50.05 M0 50.05 C-0.75 43.59, 0.23 36.22, 0 16.68 M0 50.05 C0.35 39.75, 0.77 27.04, 0 16.68 M0 16.68 C-0.3 6.49, 5.13 -0.79, 16.68 0 M0 16.68 C0.03 6.71, 7.68 0.64, 16.68 0" stroke="#1e1e1e" stroke-width="1" fill="none"></path></g><g transform="translate(73.96479257122292 181.02451232736712) rotate(0 27.769973754882812 12.5)"><text x="27.769973754882812" y="0" font-family="Virgil, Segoe UI Emoji" font-size="20px" fill="#1e1e1e" text-anchor="middle" style="white-space: pre;" direction="ltr" dominant-baseline="text-before-edge">Users</text></g><g transform="translate(218.39023824951062 200.88717303104386) rotate(0 113.06393432617188 20)"><text x="113.06393432617188" y="0" font-family="Virgil, Segoe UI Emoji" font-size="16px" fill="#1e1e1e" text-anchor="middle" style="white-space: pre;" direction="ltr" dominant-baseline="text-before-edge">sends newBid as</text><text x="113.06393432617188" y="20" font-family="Virgil, Segoe UI Emoji" font-size="16px" fill="#1e1e1e" text-anchor="middle" style="white-space: pre;" direction="ltr" dominant-baseline="text-before-edge">confidential compute request</text></g><g stroke-linecap="round"><g transform="translate(202.023825582727 195.1371649802868) rotate(0 150.71484513173766 1.6135151205887723)"><path d="M-1.06 1.04 C49.34 1.36, 251.83 2.36, 302.49 2.7 M0.59 0.54 C50.84 0.44, 251.36 0.77, 301.66 0.9" stroke="#1e1e1e" stroke-width="1" fill="none"></path></g><g transform="translate(202.023825582727 195.1371649802868) rotate(0 150.71484513173766 1.6135151205887723)"><path d="M275.19 11.5 C283.05 9.26, 292.37 4.08, 300.35 1.76 M274.37 10.51 C278.81 8.64, 285.03 7.34, 302.12 0.9" stroke="#1e1e1e" stroke-width="1" fill="none"></path></g><g transform="translate(202.023825582727 195.1371649802868) rotate(0 150.71484513173766 1.6135151205887723)"><path d="M275.23 -9.03 C283.21 -4.97, 292.52 -3.85, 300.35 1.76 M274.41 -10.01 C278.88 -7.72, 285.09 -4.87, 302.12 0.9" stroke="#1e1e1e" stroke-width="1" fill="none"></path></g></g><mask></mask><g transform="translate(890.8893450272785 10) rotate(0 62.21839141845703 17.51672908104979)"><text x="0" y="0" font-family="Virgil, Segoe UI Emoji" font-size="28.026766529679765px" fill="#9c36b5" text-anchor="start" style="white-space: pre;" direction="ltr" dominant-baseline="text-before-edge">Computor</text></g><g stroke-linecap="round" transform="translate(582.0540634894999 959.0800416777738) rotate(0 288.3242825142702 33.365386130007664)"><path d="M16.68 0 M16.68 0 C172.26 -1.89, 327.73 -1.48, 559.97 0 M16.68 0 C162.5 -0.51, 309.16 -0.19, 559.97 0 M559.97 0 C571.21 0.94, 578.2 6.41, 576.65 16.68 M559.97 0 C571.91 -1.32, 576.4 3.79, 576.65 16.68 M576.65 16.68 C575.7 31.11, 576.12 43.4, 576.65 50.05 M576.65 16.68 C576.27 25.54, 576.3 34.22, 576.65 50.05 M576.65 50.05 C578.34 61.09, 572.99 67.29, 559.97 66.73 M576.65 50.05 C577 60.77, 571.25 68.68, 559.97 66.73 M559.97 66.73 C442.23 67.49, 324.23 67.03, 16.68 66.73 M559.97 66.73 C392.53 65.6, 224.97 65.06, 16.68 66.73 M16.68 66.73 C5.68 68.36, 0.73 62.92, 0 50.05 M16.68 66.73 C5.76 68.08, 0.47 63.16, 0 50.05 M0 50.05 C-0.95 36.34, -0.66 24.48, 0 16.68 M0 50.05 C0.28 42.66, -0.96 34.85, 0 16.68 M0 16.68 C0.19 6.53, 3.94 1.3, 16.68 0 M0 16.68 C-2.17 3.73, 7.53 -0.19, 16.68 0" stroke="#1e1e1e" stroke-width="1" fill="none"></path></g><g transform="translate(828.1283841507427 979.9454278077819) rotate(0 42.249961853027344 12.5)"><text x="42.249961853027344" y="0" font-family="Virgil, Segoe UI Emoji" font-size="20px" fill="#1e1e1e" text-anchor="middle" style="white-space: pre;" direction="ltr" dominant-baseline="text-before-edge">Searcher</text></g><g transform="translate(984.3085893165348 804.0000693505958) rotate(0 113.06393432617188 20)"><text x="113.06393432617188" y="0" font-family="Virgil, Segoe UI Emoji" font-size="16px" fill="#1e1e1e" text-anchor="middle" style="white-space: pre;" direction="ltr" dominant-baseline="text-before-edge">sends back run as </text><text x="113.06393432617188" y="20" font-family="Virgil, Segoe UI Emoji" font-size="16px" fill="#1e1e1e" text-anchor="middle" style="white-space: pre;" direction="ltr" dominant-baseline="text-before-edge">confidential compute request</text></g><g stroke-linecap="round"><g transform="translate(950.3326916275253 947.5594380327393) rotate(0 -0.3398395531806955 -304.7387756600301)"><path d="M0.91 0.28 C0.5 -101.28, -1.41 -508.25, -1.59 -609.76 M-0.07 -0.62 C-0.21 -101.95, 0.64 -506.56, 0.52 -608.23" stroke="#1e1e1e" stroke-width="1" fill="none"></path></g><g transform="translate(950.3326916275253 947.5594380327393) rotate(0 -0.3398395531806955 -304.7387756600301)"><path d="M11.23 -581.94 C6.98 -590.08, 4.76 -601, 1.46 -606.68 M10.65 -580.8 C8 -589.45, 4.05 -599.93, 1.31 -608.54" stroke="#1e1e1e" stroke-width="1" fill="none"></path></g><g transform="translate(950.3326916275253 947.5594380327393) rotate(0 -0.3398395531806955 -304.7387756600301)"><path d="M-9.29 -581.95 C-5.84 -590.25, -0.36 -601.16, 1.46 -606.68 M-9.87 -580.82 C-5.49 -589.34, -2.4 -599.82, 1.31 -608.54" stroke="#1e1e1e" stroke-width="1" fill="none"></path></g></g><mask></mask><g stroke-linecap="round" transform="translate(535.2862929290366 449.92916263368033) rotate(0 161.60939646389033 124.96692231954921)"><path d="M7.86 8.16 C7.86 8.16, 7.86 8.16, 7.86 8.16 M7.86 8.16 C7.86 8.16, 7.86 8.16, 7.86 8.16 M3.66 19.09 C5.79 14.48, 8.67 11.62, 18.1 2.48 M3.66 19.09 C7.89 13.38, 13.81 7.38, 18.1 2.48 M2.75 26.24 C11.8 15.95, 19.24 7.25, 24.4 1.33 M2.75 26.24 C7.33 19.16, 14.31 13.28, 24.4 1.33 M2.48 32.64 C9.46 25.31, 17.59 13.79, 30.7 0.18 M2.48 32.64 C10.72 24.43, 17.58 15.68, 30.7 0.18 M2.88 38.28 C14.33 22.35, 27.04 7.52, 34.37 2.05 M2.88 38.28 C14.91 24.99, 25.91 11.13, 34.37 2.05 M2.62 44.68 C11.87 30.98, 25.63 18.03, 39.36 2.41 M2.62 44.68 C14.21 31.36, 24.86 19.25, 39.36 2.41 M2.36 51.07 C12.26 41.13, 19.6 28.81, 45 2.02 M2.36 51.07 C12.39 39.43, 22.52 27.27, 45 2.02 M2.75 56.72 C16.94 39.77, 32.44 19.35, 49.99 2.38 M2.75 56.72 C19.67 37.64, 35.16 17.94, 49.99 2.38 M2.49 63.11 C14.34 51.86, 24.43 36.25, 55.63 1.98 M2.49 63.11 C14.98 47.65, 28.46 32.93, 55.63 1.98 M2.23 69.51 C13.48 53.75, 27.98 42.42, 60.62 2.34 M2.23 69.51 C22.3 45.04, 44.39 22.02, 60.62 2.34 M2.62 75.16 C18.95 57.06, 33.22 38.34, 66.26 1.95 M2.62 75.16 C19.08 56.93, 34.01 38.8, 66.26 1.95 M2.36 81.55 C24.97 57.83, 49.18 29.88, 71.25 2.31 M2.36 81.55 C24.32 57.96, 43.89 34.15, 71.25 2.31 M2.76 87.2 C26.96 60.05, 53.96 29.36, 76.89 1.91 M2.76 87.2 C22.01 64.41, 41.91 43.23, 76.89 1.91 M2.49 93.59 C33.73 59.07, 64.75 19.14, 81.88 2.27 M2.49 93.59 C31.87 60.71, 59.98 27.07, 81.88 2.27 M2.23 99.99 C28.04 69.31, 55.24 39.09, 87.52 1.88 M2.23 99.99 C21.71 78.4, 41.63 56.33, 87.52 1.88 M2.63 105.64 C26.15 79.91, 47.51 51.28, 92.51 2.24 M2.63 105.64 C38.37 64.82, 74.74 23.98, 92.51 2.24 M2.37 112.03 C26.66 85.29, 51.71 56.05, 98.15 1.85 M2.37 112.03 C25.9 85.48, 49.5 59.93, 98.15 1.85 M2.1 118.43 C26.39 90.07, 50.67 65.32, 103.14 2.21 M2.1 118.43 C31.22 86.42, 58.04 53.29, 103.14 2.21 M2.5 124.07 C22.86 99.56, 48.47 72.24, 108.78 1.81 M2.5 124.07 C35.82 86.46, 67.3 50.59, 108.78 1.81 M2.24 130.47 C25.84 103.55, 48.8 80.39, 113.77 2.17 M2.24 130.47 C36.96 90.79, 70.23 50.93, 113.77 2.17 M2.63 136.11 C34.3 99.23, 66.99 59.74, 119.41 1.78 M2.63 136.11 C45.13 86.96, 89.03 36.98, 119.41 1.78 M2.37 142.51 C42.31 96.42, 81.9 53.77, 124.4 2.14 M2.37 142.51 C30.34 110.29, 59.53 78.54, 124.4 2.14 M2.11 148.91 C51.26 91.71, 99.92 35.31, 130.04 1.74 M2.11 148.91 C44.39 99.77, 86.32 51.74, 130.04 1.74 M2.5 154.55 C40.15 111.98, 77.43 65.98, 135.03 2.1 M2.5 154.55 C31.06 122.86, 58.66 89.01, 135.03 2.1 M2.24 160.95 C34.81 125.73, 62.83 89.86, 140.67 1.71 M2.24 160.95 C56.15 98.68, 110.36 36.79, 140.67 1.71 M1.98 167.35 C44.69 118.82, 86.64 69.55, 145.66 2.07 M1.98 167.35 C41.94 121.46, 81.97 75.29, 145.66 2.07 M2.38 172.99 C52.34 114.39, 104.35 57.2, 150.65 2.43 M2.38 172.99 C47.87 120.31, 92.84 66.78, 150.65 2.43 M2.11 179.39 C43.63 130.31, 88.89 82.3, 156.29 2.03 M2.11 179.39 C43.94 132.54, 84.06 86.77, 156.29 2.03 M2.51 185.03 C49.6 132.36, 98.1 78.18, 161.28 2.39 M2.51 185.03 C62.18 117.35, 121.92 48.38, 161.28 2.39 M2.25 191.43 C46.83 142.16, 86.96 91.77, 166.92 2 M2.25 191.43 C44.24 142.83, 86.27 95.12, 166.92 2 M1.99 197.83 C45.6 144.53, 91.98 94.34, 171.91 2.36 M1.99 197.83 C37.74 157.04, 71.18 118.37, 171.91 2.36 M2.38 203.47 C39.39 162.14, 76.88 118.09, 177.55 1.96 M2.38 203.47 C64.27 132.21, 125.82 60.51, 177.55 1.96 M2.12 209.87 C39.75 168.3, 79.37 121.96, 182.54 2.32 M2.12 209.87 C65.58 137.33, 129.33 63.81, 182.54 2.32 M0.55 217.78 C70.36 138.75, 138.43 57.4, 188.18 1.93 M0.55 217.78 C58.99 150.38, 116.83 83.64, 188.18 1.93 M0.94 223.42 C67.91 146.29, 133.51 68.92, 193.17 2.29 M0.94 223.42 C61.81 153.63, 122.32 83.9, 193.17 2.29 M1.99 228.31 C68.65 150.53, 135.79 72.61, 198.81 1.9 M1.99 228.31 C66.42 154.35, 129.35 82.42, 198.81 1.9 M3.04 233.2 C59.81 167.04, 120.25 100.08, 203.8 2.26 M3.04 233.2 C64.61 162.14, 128.1 89.9, 203.8 2.26 M5.4 236.58 C50.06 184.38, 94.81 134.04, 209.44 1.86 M5.4 236.58 C84.75 143.48, 163.6 52.55, 209.44 1.86 M7.77 239.95 C63.57 177.76, 118.1 113.08, 214.43 2.22 M7.77 239.95 C72 167.75, 134.11 94.62, 214.43 2.22 M10.13 243.33 C54.03 192.43, 98.17 140.26, 220.07 1.83 M10.13 243.33 C86.21 152.38, 163.97 64.43, 220.07 1.83 M13.15 245.96 C80.22 168.62, 148.33 89.49, 225.06 2.19 M13.15 245.96 C94.47 154.2, 175.8 60.04, 225.06 2.19 M16.82 247.83 C70.57 186.3, 126.47 121.7, 230.7 1.79 M16.82 247.83 C90.09 163.18, 163.55 78.74, 230.7 1.79 M20.5 249.7 C88.24 170.95, 156.39 91.24, 235.69 2.15 M20.5 249.7 C101.01 155.67, 182.37 61.9, 235.69 2.15 M24.83 250.81 C109.66 153.51, 194.06 56.07, 241.33 1.76 M24.83 250.81 C77.96 190.57, 129 131.05, 241.33 1.76 M29.82 251.17 C104.6 166.63, 178.62 82.88, 246.32 2.12 M29.82 251.17 C84.67 189.91, 139.59 128.49, 246.32 2.12 M34.15 252.29 C117.82 156.63, 199.33 60.93, 251.96 1.72 M34.15 252.29 C80.68 202.2, 124.48 151.15, 251.96 1.72 M39.79 251.89 C101.74 182.57, 160.98 114.72, 256.95 2.08 M39.79 251.89 C103.91 178.43, 168.81 103.74, 256.95 2.08 M44.78 252.25 C111.87 178.65, 177.48 102.82, 262.59 1.69 M44.78 252.25 C93.15 194.24, 143.51 137.42, 262.59 1.69 M50.42 251.86 C101.68 195.35, 152.18 137.52, 267.58 2.05 M50.42 251.86 C123.97 167.31, 199.15 81.37, 267.58 2.05 M55.41 252.22 C130.8 167.05, 205.16 84.27, 272.56 2.41 M55.41 252.22 C129.26 169.18, 201 85.64, 272.56 2.41 M61.05 251.82 C136.82 167.71, 210.86 82.64, 278.21 2.01 M61.05 251.82 C140.43 161.22, 218.43 71.32, 278.21 2.01 M66.04 252.18 C112.6 198.67, 159.52 145.96, 283.19 2.37 M66.04 252.18 C148.88 157.13, 230.92 62.39, 283.19 2.37 M71.68 251.79 C145.49 165.28, 222 79.25, 288.84 1.98 M71.68 251.79 C124.74 188.58, 179.34 127.29, 288.84 1.98 M76.67 252.15 C149.7 168.09, 222.94 83.13, 293.82 2.34 M76.67 252.15 C133.36 190.23, 189.58 126.2, 293.82 2.34 M82.31 251.75 C166.81 154.58, 249.12 60.69, 298.81 2.7 M82.31 251.75 C132.21 193.51, 183.39 134.65, 298.81 2.7 M87.3 252.11 C143.21 189.8, 198.42 127.96, 303.14 3.81 M87.3 252.11 C149.49 180.39, 212.15 109.14, 303.14 3.81 M92.94 251.72 C146.65 192.89, 199.95 131.44, 308.13 4.17 M92.94 251.72 C156.95 178.2, 219.41 105.17, 308.13 4.17 M97.93 252.08 C143.55 199.65, 190.01 147.85, 311.15 6.8 M97.93 252.08 C148.77 192.94, 199.7 135.34, 311.15 6.8 M103.57 251.68 C171.35 172.6, 237.46 96.5, 315.48 7.91 M103.57 251.68 C170.88 172.21, 240.13 94.14, 315.48 7.91 M108.56 252.04 C189.25 159.09, 273.76 63.13, 317.18 12.05 M108.56 252.04 C170.71 179.93, 232.43 107.6, 317.18 12.05 M114.2 251.65 C194.31 161.82, 271.64 70.08, 319.55 15.43 M114.2 251.65 C190.16 166.5, 265.19 80.15, 319.55 15.43 M119.19 252.01 C177.62 189.14, 231.69 125.18, 321.91 18.8 M119.19 252.01 C178.67 181.11, 240.34 110.63, 321.91 18.8 M124.18 252.37 C182.98 187.03, 239.07 122.31, 322.96 23.69 M124.18 252.37 C200.43 165.97, 277.79 77.4, 322.96 23.69 M129.82 251.98 C180.32 192.16, 230.1 133.81, 323.36 29.34 M129.82 251.98 C189.55 182.28, 248.19 113.9, 323.36 29.34 M134.81 252.34 C184.1 198.14, 232.03 143.65, 325.06 33.47 M134.81 252.34 C188.56 189.04, 243.93 125.63, 325.06 33.47 M140.45 251.94 C191.63 193.36, 241.82 137.31, 324.8 39.87 M140.45 251.94 C180.28 205.97, 220.82 159.62, 324.8 39.87 M145.44 252.3 C201.11 186.21, 260.41 122.42, 325.2 45.51 M145.44 252.3 C204.81 183.71, 263.07 117.2, 325.2 45.51 M151.08 251.91 C207.19 185.85, 266.79 119.66, 324.93 51.91 M151.08 251.91 C211.82 179.8, 274.43 108.74, 324.93 51.91 M156.07 252.27 C218.68 179.36, 280.02 108.96, 324.67 58.31 M156.07 252.27 C199.67 203.46, 244.66 151.87, 324.67 58.31 M161.71 251.87 C228.58 178.48, 291.42 104.9, 325.07 63.95 M161.71 251.87 C211.91 196.1, 262.08 140.55, 325.07 63.95 M166.7 252.23 C209.48 202.79, 250.93 155.01, 324.81 70.35 M166.7 252.23 C199.56 215.84, 232.34 179.08, 324.81 70.35 M172.34 251.84 C222.57 196.35, 270.73 138.13, 325.2 75.99 M172.34 251.84 C210.25 207.87, 248.07 165.18, 325.2 75.99 M177.33 252.2 C225.42 195.63, 273.64 142.94, 324.94 82.39 M177.33 252.2 C235.23 182.58, 294.24 115.22, 324.94 82.39 M182.97 251.8 C223.68 202.45, 266.96 156.03, 324.68 88.79 M182.97 251.8 C213.82 215.88, 245.85 178.35, 324.68 88.79 M187.96 252.16 C225.38 212.39, 257.99 171.31, 325.07 94.43 M187.96 252.16 C218.26 217.5, 249.96 182.39, 325.07 94.43 M193.6 251.77 C220.73 218.89, 250.17 186.65, 324.81 100.83 M193.6 251.77 C234.18 202.45, 276.22 156.18, 324.81 100.83 M198.59 252.13 C243.15 196.43, 291.02 143.19, 325.21 106.47 M198.59 252.13 C249.09 194.86, 296.77 137.92, 325.21 106.47 M204.23 251.73 C237.29 214.64, 268.29 175.63, 324.94 112.87 M204.23 251.73 C229.1 221.9, 254.11 191.58, 324.94 112.87 M209.22 252.09 C235.13 222.99, 260.99 195.12, 324.68 119.27 M209.22 252.09 C250.1 206.27, 290.89 161.23, 324.68 119.27 M214.86 251.7 C239.46 223.89, 263.47 196.82, 325.08 124.91 M214.86 251.7 C244.94 218.68, 273.93 184.42, 325.08 124.91 M219.85 252.06 C257.77 208.85, 300.01 160.11, 324.82 131.31 M219.85 252.06 C248.66 219.46, 276.66 188.06, 324.82 131.31 M225.49 251.67 C253.08 220.23, 283.15 184.68, 325.21 136.95 M225.49 251.67 C248.78 225.37, 271.53 199.6, 325.21 136.95 M230.48 252.03 C250.64 231.13, 269.44 210.36, 324.95 143.35 M230.48 252.03 C256.37 223.03, 282.79 192.88, 324.95 143.35 M235.46 252.39 C256.24 230.12, 275.43 205.97, 324.69 149.75 M235.46 252.39 C264.33 218.89, 294.63 183.64, 324.69 149.75 M241.11 251.99 C262.37 225.92, 290.23 195.09, 325.08 155.39 M241.11 251.99 C259.6 231.28, 278.93 209.77, 325.08 155.39 M246.09 252.35 C270.36 224.72, 296.53 195.76, 324.82 161.79 M246.09 252.35 C261.81 235.86, 279.18 217.01, 324.82 161.79 M251.74 251.96 C267.51 232.43, 286.13 212.43, 325.21 167.43 M251.74 251.96 C271.17 228.47, 293.06 204.24, 325.21 167.43 M256.72 252.32 C281.97 226.1, 305.2 197.24, 324.95 173.83 M256.72 252.32 C279.06 226.29, 299.8 201.75, 324.95 173.83 M262.37 251.92 C279.99 229.07, 297.41 210.24, 324.69 180.22 M262.37 251.92 C285.77 226.26, 309.32 198.61, 324.69 180.22 M267.35 252.28 C280.24 238.37, 292.43 223.77, 325.09 185.87 M267.35 252.28 C290.6 226.89, 312.54 199.44, 325.09 185.87 M273 251.89 C286.98 238.43, 298.65 219.85, 324.83 192.27 M273 251.89 C292.2 230.01, 309.74 209.02, 324.83 192.27 M277.98 252.25 C297.02 231, 314.22 211.45, 325.22 197.91 M277.98 252.25 C294.62 233.08, 313.39 212.66, 325.22 197.91 M283.63 251.85 C291.98 240.3, 302.1 230.16, 324.96 204.31 M283.63 251.85 C293.24 241.26, 300.45 231.97, 324.96 204.31 M288.61 252.21 C300.74 240.99, 310.82 227.79, 324.7 210.7 M288.61 252.21 C296.61 242.22, 304.07 234.97, 324.7 210.7 M293.6 252.57 C300.71 243.47, 306.46 239.08, 323.78 217.86 M293.6 252.57 C302.14 244.47, 307.95 235.39, 323.78 217.86 M299.9 251.42 C306.57 244.87, 313.13 234.25, 322.21 225.76 M299.9 251.42 C307.76 241.47, 316.43 233.56, 322.21 225.76 M306.86 249.52 C311.75 244.57, 317.51 238.74, 321.94 232.16 M306.86 249.52 C311.96 242.6, 317.39 236.44, 321.94 232.16" stroke="#b2f2bb" stroke-width="0.5" fill="none"></path><path d="M32 0 M32 0 C111.1 0.12, 191.36 1.73, 291.22 0 M32 0 C98.55 -1.12, 166.05 -1.78, 291.22 0 M291.22 0 C312.81 1.61, 322.7 12.44, 323.22 32 M291.22 0 C313.81 1.26, 324.05 10.6, 323.22 32 M323.22 32 C324.56 91.28, 325.4 148.91, 323.22 217.93 M323.22 32 C322.79 99.75, 323.53 170.02, 323.22 217.93 M323.22 217.93 C321.31 237.93, 312.15 248.28, 291.22 249.93 M323.22 217.93 C323.11 238.36, 310.92 250.59, 291.22 249.93 M291.22 249.93 C230.69 249.69, 166.71 247.33, 32 249.93 M291.22 249.93 C213.02 250.56, 135.82 251.12, 32 249.93 M32 249.93 C11.21 250.16, 0.43 240.68, 0 217.93 M32 249.93 C11.82 248.32, -2.1 238.95, 0 217.93 M0 217.93 C0.12 155.79, -0.61 97.51, 0 32 M0 217.93 C-0.48 171.49, -1.12 124.38, 0 32 M0 32 C0.31 12.07, 10.32 0.49, 32 0 M0 32 C-0.93 11.94, 10.14 1.64, 32 0" stroke="#1e1e1e" stroke-width="1" fill="none"></path></g><g transform="translate(569.6022031321866 490.8227409391552) rotate(0 85.30995178222656 12.5)"><text x="0" y="0" font-family="Virgil, Segoe UI Emoji" font-size="20px" fill="#1e1e1e" text-anchor="start" style="white-space: pre;" direction="ltr" dominant-baseline="text-before-edge">SUAVE PoA Chain</text></g><g stroke-linecap="round" transform="translate(564.5525219590097 547.9716646188367) rotate(0 65.54681847312258 62.86047345373231)"><path d="M7.71 8.03 C7.71 8.03, 7.71 8.03, 7.71 8.03 M7.71 8.03 C7.71 8.03, 7.71 8.03, 7.71 8.03 M3.51 18.95 C7.46 16.52, 8.77 10.21, 14.67 6.12 M3.51 18.95 C7.39 14.56, 11.04 11.68, 14.67 6.12 M2.59 26.11 C8.87 19.85, 10.57 14.11, 24.24 1.2 M2.59 26.11 C9.61 18.49, 14.06 12.61, 24.24 1.2 M1.68 33.26 C7.13 25.19, 14.03 17.92, 29.89 0.81 M1.68 33.26 C9.48 24.03, 18.18 14.02, 29.89 0.81 M2.07 38.9 C12.69 30.18, 20.85 15.67, 34.22 1.92 M2.07 38.9 C11.94 27.37, 22.46 13.61, 34.22 1.92 M1.81 45.3 C7.56 35.27, 16 27.75, 39.21 2.28 M1.81 45.3 C13.44 32.53, 24.16 19.09, 39.21 2.28 M1.55 51.7 C15.88 32.9, 35.68 12.72, 44.19 2.64 M1.55 51.7 C10.19 40.38, 21.35 28.85, 44.19 2.64 M1.94 57.34 C19.01 37.16, 34.07 21.03, 49.84 2.25 M1.94 57.34 C21.2 36.01, 38.27 15.3, 49.84 2.25 M1.68 63.74 C13.94 48.74, 30.2 34.59, 54.82 2.61 M1.68 63.74 C22.2 41.47, 41.84 19.36, 54.82 2.61 M2.08 69.38 C13.32 53.91, 26.42 39.66, 60.47 2.21 M2.08 69.38 C15.02 54.11, 29 39.56, 60.47 2.21 M1.82 75.78 C27.7 46.63, 50.85 19.52, 65.45 2.57 M1.82 75.78 C26.77 47.9, 50.81 19.46, 65.45 2.57 M1.55 82.18 C23.61 56.79, 46.6 29.7, 71.1 2.18 M1.55 82.18 C26.3 51.87, 52.71 23.98, 71.1 2.18 M1.95 87.82 C16.02 70.44, 32.03 51.69, 76.08 2.54 M1.95 87.82 C26.05 60, 52.12 30.4, 76.08 2.54 M1.03 94.97 C21.46 70.38, 39.39 48.5, 81.73 2.14 M1.03 94.97 C27.91 64.62, 55.12 32.25, 81.73 2.14 M0.77 101.37 C19.71 81.15, 37.71 58.37, 86.71 2.5 M0.77 101.37 C27.3 71.35, 53.74 40.84, 86.71 2.5 M1.82 106.26 C25.15 80.47, 46.24 54.69, 91.7 2.86 M1.82 106.26 C33.57 69.17, 66.71 32.87, 91.7 2.86 M3.53 110.39 C23.01 86.44, 48.43 59.09, 97.34 2.47 M3.53 110.39 C27.11 82.42, 50.34 54.94, 97.34 2.47 M5.23 114.53 C44.97 69.69, 82.34 27.18, 102.33 2.83 M5.23 114.53 C24.12 90.16, 44.43 66.22, 102.33 2.83 M8.25 117.15 C32.02 88.84, 55.5 62.32, 108.63 1.68 M8.25 117.15 C42.24 76.84, 75.69 39.5, 108.63 1.68 M11.27 119.77 C49.31 76.16, 87.89 35.4, 112.96 2.79 M11.27 119.77 C31.39 94.43, 52.35 71.32, 112.96 2.79 M14.29 122.4 C40.12 90.13, 68.99 58.83, 116.64 4.66 M14.29 122.4 C50.75 82.49, 87.04 40.99, 116.64 4.66 M17.96 124.27 C46.78 93.49, 71.58 62.22, 120.97 5.78 M17.96 124.27 C57.76 79.84, 97.57 35.13, 120.97 5.78 M22.3 125.38 C55.63 89.17, 84.8 54.72, 123.33 9.16 M22.3 125.38 C55.7 87.88, 86.87 50.71, 123.33 9.16 M25.97 127.25 C65.58 81.29, 104.03 34.53, 126.35 11.78 M25.97 127.25 C58.89 89.78, 91.4 52.75, 126.35 11.78 M31.61 126.86 C56.7 96.11, 82.17 67.05, 129.37 14.41 M31.61 126.86 C65.16 87.39, 97.81 48.13, 129.37 14.41 M36.6 127.22 C61.84 95.36, 90.11 65.05, 130.42 19.29 M36.6 127.22 C67.66 90.83, 99.11 56.32, 130.42 19.29 M42.24 126.82 C70.76 90.32, 101.48 57.81, 131.47 24.18 M42.24 126.82 C68.09 95.99, 96.5 64.81, 131.47 24.18 M47.23 127.18 C73.45 100.39, 96.86 70.59, 131.21 30.58 M47.23 127.18 C68.8 102.12, 90.74 76.56, 131.21 30.58 M52.22 127.54 C73.1 100.75, 94.1 77.91, 133.57 33.96 M52.22 127.54 C79.62 95.58, 107.73 63.57, 133.57 33.96 M57.86 127.15 C83.14 95.64, 111.23 65.32, 133.96 39.6 M57.86 127.15 C79.5 100.4, 103.47 74.37, 133.96 39.6 M62.85 127.51 C83.46 106.15, 101.66 83.59, 133.7 46 M62.85 127.51 C79.23 108.49, 95.57 87.81, 133.7 46 M68.49 127.11 C87.08 109.97, 101.47 91.28, 133.44 52.4 M68.49 127.11 C90.99 100.65, 112.09 75.38, 133.44 52.4 M73.48 127.47 C94.17 105.17, 111.47 81.72, 133.84 58.04 M73.48 127.47 C98.37 100.28, 120.53 72.29, 133.84 58.04 M79.12 127.08 C98.55 103.51, 120.83 79, 133.57 64.44 M79.12 127.08 C93.58 111.96, 105.92 95.6, 133.57 64.44 M84.11 127.44 C100.22 108.9, 115.95 93.65, 133.31 70.84 M84.11 127.44 C95.59 114.23, 107 100.62, 133.31 70.84 M89.1 127.8 C105.55 107.45, 123.1 92.04, 133.71 76.48 M89.1 127.8 C99.45 117.56, 108.98 105.31, 133.71 76.48 M94.74 127.41 C108.94 108.12, 124.13 93.39, 133.45 82.88 M94.74 127.41 C106.08 114.74, 115.64 102.22, 133.45 82.88 M101.04 126.26 C115.36 112.17, 127.31 97.87, 133.18 89.28 M101.04 126.26 C112.52 112.65, 123.28 100.09, 133.18 89.28 M107.34 125.11 C116.55 116.65, 121.12 106.27, 133.58 94.92 M107.34 125.11 C118.22 113.5, 127.71 100.04, 133.58 94.92 M114.29 123.2 C121.56 117.47, 124.43 110.13, 132.01 102.83 M114.29 123.2 C119.32 117.04, 124 111.86, 132.01 102.83 M12.39 121.4 C12.39 121.4, 12.39 121.4, 12.39 121.4 M12.39 121.4 C12.39 121.4, 12.39 121.4, 12.39 121.4 M21.81 124.29 C16.98 123.29, 17.36 118.79, 6.72 111.17 M21.81 124.29 C19.28 122.07, 15.7 117.76, 6.72 111.17 M25.94 122.58 C17.71 114.8, 8.73 109, 1.04 100.93 M25.94 122.58 C17.55 115.71, 10.51 107.99, 1.04 100.93 M32.34 122.84 C21.81 115.8, 12.95 104.66, 0.64 95.29 M32.34 122.84 C21.88 113.25, 12.3 106.39, 0.64 95.29 M38.74 123.1 C28.94 114.01, 21.22 106.86, 2.51 91.61 M38.74 123.1 C27.56 112.45, 16.04 104.17, 2.51 91.61 M44.38 122.71 C32.81 110.94, 17.27 102.22, 2.12 85.97 M44.38 122.71 C29.19 108.87, 12.72 96.87, 2.12 85.97 M50.78 122.97 C34.76 108.9, 16.1 93.4, 2.48 80.98 M50.78 122.97 C31.8 107.56, 15.19 91.55, 2.48 80.98 M57.18 123.23 C41.05 110.09, 23.76 93.39, 2.08 75.34 M57.18 123.23 C36.23 103.83, 14.28 86.27, 2.08 75.34 M62.82 122.84 C42.43 103.73, 24.63 86.96, 2.44 70.35 M62.82 122.84 C38.78 102.08, 16.23 80.97, 2.44 70.35 M69.22 123.1 C55.03 110.32, 39.82 99.02, 2.05 64.71 M69.22 123.1 C47.78 104.01, 25.48 84.88, 2.05 64.71 M75.62 123.36 C48.35 98.75, 18.68 76.21, 2.41 59.72 M75.62 123.36 C55.92 104.56, 34.1 86.18, 2.41 59.72 M81.26 122.97 C52.03 96.53, 21.97 71.92, 2.77 54.74 M81.26 122.97 C64.89 108, 49.87 93.57, 2.77 54.74 M87.66 123.23 C70.48 108.13, 54.05 93.93, 2.38 49.09 M87.66 123.23 C54.64 94.33, 20.58 64.75, 2.38 49.09 M94.06 123.49 C62.01 95.04, 32.12 67.94, 2.74 44.11 M94.06 123.49 C72.91 104.95, 50.86 85.38, 2.74 44.11 M101.21 124.41 C78.7 103.1, 51.42 82.37, 2.34 38.46 M101.21 124.41 C68.53 97.73, 36.82 69.13, 2.34 38.46 M107.61 124.67 C81.09 100.31, 55.31 77.42, 0.44 31.51 M107.61 124.67 C69.65 93.03, 33.08 60.79, 0.44 31.51 M111.74 122.96 C83.08 97.84, 57.27 77.04, 0.8 26.52 M111.74 122.96 C82.98 96.42, 51.23 70.73, 0.8 26.52 M116.63 121.91 C80.74 92.21, 46.99 59.99, 1.16 21.53 M116.63 121.91 C70.92 82.55, 25.85 43.07, 1.16 21.53 M120.01 119.55 C88.25 91.28, 56.76 65.74, 2.27 17.2 M120.01 119.55 C84.05 89.25, 47.25 57.33, 2.27 17.2 M123.39 117.18 C89.95 84.92, 55.51 56.18, 4.14 13.53 M123.39 117.18 C77.95 77.29, 33.85 38.83, 4.14 13.53 M126.01 114.17 C95.11 87.13, 60.91 57.63, 6.77 10.51 M126.01 114.17 C88.36 82.07, 52.68 51.01, 6.77 10.51 M128.63 111.15 C102.79 87.93, 78.48 68.81, 8.63 6.83 M128.63 111.15 C102.02 89.07, 77.28 65.38, 8.63 6.83 M129.75 106.82 C87.97 68.46, 44.14 31.06, 12.01 4.47 M129.75 106.82 C82.58 64.7, 37.33 25.35, 12.01 4.47 M131.62 103.14 C96.05 76.47, 64.25 45.87, 14.64 1.45 M131.62 103.14 C85.74 64.11, 40.71 23.84, 14.64 1.45 M132.73 98.81 C92.13 65.41, 50.2 31.28, 19.53 0.4 M132.73 98.81 C93.47 64.65, 53.74 30.54, 19.53 0.4 M133.09 93.82 C91.89 58.82, 51.97 23.61, 24.41 -0.65 M133.09 93.82 C99.57 66.21, 68.78 38.46, 24.41 -0.65 M132.7 88.18 C94.38 56.25, 58.09 22.2, 30.81 -0.39 M132.7 88.18 C98.82 59.42, 66.25 30.1, 30.81 -0.39 M133.06 83.19 C99.38 55.48, 67.04 26.75, 34.19 -2.75 M133.06 83.19 C105.56 60.77, 80.05 38.19, 34.19 -2.75 M133.42 78.21 C110.25 60.02, 90.74 40.37, 39.83 -3.15 M133.42 78.21 C98.08 46.27, 62.55 14.78, 39.83 -3.15 M133.02 72.56 C115 58.1, 95.83 39.87, 46.23 -2.88 M133.02 72.56 C101.23 46.09, 70.62 18.06, 46.23 -2.88 M133.38 67.58 C109.13 47.36, 83.59 26.27, 52.63 -2.62 M133.38 67.58 C103.86 41.78, 73.58 16.06, 52.63 -2.62 M132.99 61.93 C111.16 41.34, 88.38 24.21, 58.27 -3.02 M132.99 61.93 C102.47 36.74, 74.75 10.23, 58.27 -3.02 M133.35 56.95 C117.61 41.53, 99.27 27.14, 64.67 -2.76 M133.35 56.95 C107.89 34.62, 83.15 12.76, 64.67 -2.76 M132.95 51.3 C114.44 35.83, 94.43 15.72, 71.07 -2.49 M132.95 51.3 C115.21 34.36, 96.67 20.07, 71.07 -2.49 M133.32 46.32 C119.74 32.14, 100.61 20.97, 76.71 -2.89 M133.32 46.32 C115 31, 97.25 14.25, 76.71 -2.89 M133.68 41.33 C112.79 24.56, 94.79 9.22, 83.11 -2.63 M133.68 41.33 C117.34 27.33, 100.77 12.58, 83.11 -2.63 M133.28 35.69 C122.69 26.31, 109.17 16.05, 89.51 -2.37 M133.28 35.69 C116.29 19.42, 97.32 5.15, 89.51 -2.37 M132.89 30.04 C123.77 22.79, 115.98 16.96, 95.15 -2.76 M132.89 30.04 C121.43 18.8, 107.66 8.85, 95.15 -2.76 M130.98 23.09 C121.83 16.32, 116.15 12.38, 101.55 -2.5 M130.98 23.09 C119.31 13.89, 107.93 3.72, 101.55 -2.5 M129.08 16.13 C123.15 11.49, 115.01 1.6, 108.7 -1.58 M129.08 16.13 C124.3 12.57, 121.66 7.85, 108.7 -1.58" stroke="#d0bfff" stroke-width="0.5" fill="none"></path><path d="M31.43 0 M31.43 0 C53.48 1.5, 77.84 -1.93, 99.66 0 M31.43 0 C51.72 0.44, 72.99 -0.33, 99.66 0 M99.66 0 C118.88 1.8, 131.95 11.3, 131.09 31.43 M99.66 0 C119.84 -0.08, 132.61 9.13, 131.09 31.43 M131.09 31.43 C132.45 52.44, 129.73 71.7, 131.09 94.29 M131.09 31.43 C130.87 51.88, 130.89 70.8, 131.09 94.29 M131.09 94.29 C130.28 116.26, 122.55 127.4, 99.66 125.72 M131.09 94.29 C131.06 113.57, 121.35 124.05, 99.66 125.72 M99.66 125.72 C84.23 127.8, 70.83 126.65, 31.43 125.72 M99.66 125.72 C74.83 125.27, 52.33 124.41, 31.43 125.72 M31.43 125.72 C11.86 127.33, -0.3 114.16, 0 94.29 M31.43 125.72 C9.84 125.86, 0.08 116.4, 0 94.29 M0 94.29 C0.68 72.91, 1.56 50.3, 0 31.43 M0 94.29 C0.08 75.8, -0.06 56.69, 0 31.43 M0 31.43 C-1.05 11.83, 9.49 -1.01, 31.43 0 M0 31.43 C1.74 12.41, 8.59 -0.37, 31.43 0" stroke="#1e1e1e" stroke-width="1" fill="none"></path></g><g transform="translate(579.5278224877964 588.407390489931) rotate(0 50.57151794433594 22.42474758263802)"><text x="50.57151794433594" y="0" font-family="Virgil, Segoe UI Emoji" font-size="17.93979806611043px" fill="#1e1e1e" text-anchor="middle" style="white-space: pre;" direction="ltr" dominant-baseline="text-before-edge">MEV </text><text x="50.57151794433594" y="22.424747582638037" font-family="Virgil, Segoe UI Emoji" font-size="17.93979806611043px" fill="#1e1e1e" text-anchor="middle" style="white-space: pre;" direction="ltr" dominant-baseline="text-before-edge">Applications</text></g><g stroke-linecap="round"><g transform="translate(635.1639404972573 946.6513492302429) rotate(0 -2.481635702308097 -122.2603584031092)"><path d="M0.01 0.2 C-0.72 -40.48, -4.36 -203.72, -4.97 -244.73 M-1.45 -0.73 C-1.72 -41.16, -2.13 -202.49, -2.57 -243.22" stroke="#1e1e1e" stroke-width="1" fill="none"></path></g><g transform="translate(635.1639404972573 946.6513492302429) rotate(0 -2.481635702308097 -122.2603584031092)"><path d="M-10.49 -28.76 C-8.37 -19.62, -7.52 -13.03, -1.11 0.8 M-11.2 -27.36 C-6.86 -18.81, -4.31 -9.23, 0.22 -0.66" stroke="#1e1e1e" stroke-width="1" fill="none"></path></g><g transform="translate(635.1639404972573 946.6513492302429) rotate(0 -2.481635702308097 -122.2603584031092)"><path d="M10.02 -29.18 C7.01 -19.94, 2.73 -13.24, -1.11 0.8 M9.32 -27.79 C6.66 -19.17, 2.21 -9.45, 0.22 -0.66" stroke="#1e1e1e" stroke-width="1" fill="none"></path></g></g><mask></mask><g transform="translate(509.26285880971045 830.2665560282344) rotate(0 43.70397186279297 19.999999999999773)"><text x="43.70397186279297" y="0" font-family="Virgil, Segoe UI Emoji" font-size="16px" fill="#1e1e1e" text-anchor="middle" style="white-space: pre;" direction="ltr" dominant-baseline="text-before-edge">newBid</text><text x="43.70397186279297" y="20" font-family="Virgil, Segoe UI Emoji" font-size="16px" fill="#1e1e1e" text-anchor="middle" style="white-space: pre;" direction="ltr" dominant-baseline="text-before-edge">log emitted</text></g><g stroke-linecap="round" transform="translate(528.0992858817121 75.80114360416246) rotate(0 282.60877024723754 124.96692231954921)"><path d="M7.86 8.16 C7.86 8.16, 7.86 8.16, 7.86 8.16 M7.86 8.16 C7.86 8.16, 7.86 8.16, 7.86 8.16 M3.66 19.09 C6.06 15.84, 9.55 13.18, 18.1 2.48 M3.66 19.09 C9.63 13.71, 13.19 7.93, 18.1 2.48 M2.75 26.24 C11.88 15.69, 19.13 6.16, 24.4 1.33 M2.75 26.24 C9.7 17.84, 16.43 10.36, 24.4 1.33 M1.83 33.39 C7.6 23.94, 19.16 16.04, 30.7 0.18 M1.83 33.39 C12.01 23.57, 20.86 11.44, 30.7 0.18 M1.57 39.79 C12.06 27.08, 22.65 14.45, 34.37 2.05 M1.57 39.79 C8.79 32.12, 16.3 23.66, 34.37 2.05 M1.96 45.43 C16.61 29.18, 29.23 12.53, 39.36 2.41 M1.96 45.43 C15.43 29.71, 28.07 14.61, 39.36 2.41 M1.7 51.83 C11.56 41.11, 22.75 29.26, 45 2.02 M1.7 51.83 C15.65 36.95, 28.45 20.66, 45 2.02 M2.1 57.47 C20.32 39.64, 35.83 20.2, 49.99 2.38 M2.1 57.47 C15.39 41.93, 29.59 27.96, 49.99 2.38 M1.83 63.87 C18.82 43.83, 32.26 28.08, 55.63 1.98 M1.83 63.87 C15.52 48.9, 29.35 31.69, 55.63 1.98 M1.57 70.27 C14.99 55.59, 29.28 39.08, 60.62 2.34 M1.57 70.27 C16.85 53.2, 33.11 33.84, 60.62 2.34 M1.97 75.91 C22.56 52.64, 42.54 28.41, 66.26 1.95 M1.97 75.91 C18.34 58.27, 34.39 37.68, 66.26 1.95 M1.71 82.31 C24.26 56.52, 47.24 29.7, 71.25 2.31 M1.71 82.31 C26.59 54.42, 51.31 25.97, 71.25 2.31 M2.1 87.95 C17.27 70.22, 33.72 49.93, 76.89 1.91 M2.1 87.95 C18.07 69.58, 32.63 52.14, 76.89 1.91 M1.84 94.35 C27.2 67.58, 47.83 42.27, 81.88 2.27 M1.84 94.35 C32.01 58.86, 63.04 22.85, 81.88 2.27 M1.58 100.75 C21.46 77.19, 45.18 51.22, 87.52 1.88 M1.58 100.75 C31.62 67.94, 60.24 33.56, 87.52 1.88 M1.97 106.39 C30.45 72.36, 61.65 40.42, 92.51 2.24 M1.97 106.39 C20.23 84.8, 38.35 63.42, 92.51 2.24 M1.71 112.79 C40.97 67.5, 78.39 23.72, 98.15 1.85 M1.71 112.79 C37.54 71.26, 74.2 29.68, 98.15 1.85 M2.1 118.43 C38.91 75.2, 72.9 34.8, 103.14 2.21 M2.1 118.43 C30.05 86.89, 57.95 53.5, 103.14 2.21 M1.84 124.83 C42.91 80.39, 81.52 35.01, 108.78 1.81 M1.84 124.83 C41.78 78.33, 80.95 33.63, 108.78 1.81 M2.24 130.47 C24.87 100.71, 51.83 72.6, 113.77 2.17 M2.24 130.47 C37.15 90.88, 70.65 53.07, 113.77 2.17 M1.98 136.87 C30.8 103.82, 60.54 71.91, 119.41 1.78 M1.98 136.87 C36.48 97.01, 70.26 57.69, 119.41 1.78 M1.72 143.27 C50.24 89.51, 98.13 38.69, 124.4 2.14 M1.72 143.27 C44.31 93.26, 89.04 42.44, 124.4 2.14 M2.11 148.91 C53.38 91.08, 101.76 32.63, 130.04 1.74 M2.11 148.91 C33.31 114.76, 63.79 81.3, 130.04 1.74 M1.85 155.31 C43.64 108.86, 82.37 64.84, 135.03 2.1 M1.85 155.31 C53.22 98.07, 104.62 38.71, 135.03 2.1 M2.24 160.95 C49.96 104.89, 96.83 49.78, 140.67 1.71 M2.24 160.95 C55.11 101.62, 106.94 41.11, 140.67 1.71 M1.98 167.35 C44.76 116.78, 89.85 67.19, 145.66 2.07 M1.98 167.35 C42.86 118.83, 82.99 71.66, 145.66 2.07 M2.38 172.99 C57.94 107.16, 113.72 46.39, 150.65 2.43 M2.38 172.99 C39.76 130.25, 75.3 89, 150.65 2.43 M2.11 179.39 C53.71 119.33, 103.38 60.31, 156.29 2.03 M2.11 179.39 C38.28 138.46, 73.74 96.09, 156.29 2.03 M1.85 185.79 C40.24 139.88, 79.38 92.88, 161.28 2.39 M1.85 185.79 C43.43 137.32, 85.73 89.2, 161.28 2.39 M2.25 191.43 C64.23 119.18, 129.02 46.2, 166.92 2 M2.25 191.43 C65.11 121.74, 126.19 49.96, 166.92 2 M1.99 197.83 C56.46 136.25, 109.91 73.33, 171.91 2.36 M1.99 197.83 C66.49 121.75, 131.64 46.12, 171.91 2.36 M2.38 203.47 C49.82 146.91, 97.61 93.89, 177.55 1.96 M2.38 203.47 C54.42 143.74, 105.55 85.28, 177.55 1.96 M2.12 209.87 C41.65 159.35, 82.97 113.95, 182.54 2.32 M2.12 209.87 C50.89 155.63, 97.63 100.62, 182.54 2.32 M2.51 215.51 C48.5 162, 95.83 106.18, 188.18 1.93 M2.51 215.51 C73.35 135.09, 145.86 52.07, 188.18 1.93 M2.25 221.91 C77.75 135.71, 150.69 49.3, 193.17 2.29 M2.25 221.91 C54.88 161.63, 107.52 102.53, 193.17 2.29 M2.65 227.55 C42.07 180.45, 84.86 132.9, 198.81 1.9 M2.65 227.55 C53.68 169.11, 101.67 112.7, 198.81 1.9 M4.35 231.69 C66.77 158.8, 131.35 86.07, 203.8 2.26 M4.35 231.69 C67.2 161.06, 129.42 89.87, 203.8 2.26 M4.75 237.33 C59.42 174.13, 114.97 109.96, 209.44 1.86 M4.75 237.33 C71.84 163.18, 138.03 87.72, 209.44 1.86 M7.11 240.71 C65 169.85, 127.15 101.18, 214.43 2.22 M7.11 240.71 C88.85 149.77, 168.19 58.24, 214.43 2.22 M10.13 243.33 C91.69 147.25, 174.46 52.5, 220.07 1.83 M10.13 243.33 C60.25 187.91, 110.14 130.78, 220.07 1.83 M13.15 245.96 C78.09 172.48, 139.11 98.61, 225.06 2.19 M13.15 245.96 C59.43 193.85, 104.66 140.87, 225.06 2.19 M16.82 247.83 C92.97 159.87, 170.88 69.06, 230.7 1.79 M16.82 247.83 C70.15 185.82, 124.7 124.68, 230.7 1.79 M20.5 249.7 C80.08 180.91, 138.69 112.11, 235.69 2.15 M20.5 249.7 C73.74 189.31, 127.19 128.55, 235.69 2.15 M24.83 250.81 C68.15 199.13, 114.57 147.34, 241.33 1.76 M24.83 250.81 C76.67 190.28, 127.58 131.42, 241.33 1.76 M29.82 251.17 C92.97 178.63, 160.14 103.36, 246.32 2.12 M29.82 251.17 C79.14 194.15, 126.47 139.02, 246.32 2.12 M34.15 252.29 C122.4 154.5, 207.92 54.58, 251.96 1.72 M34.15 252.29 C98.71 179.36, 160.1 107.39, 251.96 1.72 M39.79 251.89 C117.23 160.02, 196.19 69.94, 256.95 2.08 M39.79 251.89 C87.22 196.25, 134.79 140.8, 256.95 2.08 M44.78 252.25 C91.21 199.82, 137.52 145.76, 262.59 1.69 M44.78 252.25 C110.14 178.42, 175.17 104.31, 262.59 1.69 M50.42 251.86 C96.33 200.19, 142.07 147.54, 267.58 2.05 M50.42 251.86 C100.03 193.93, 150.23 137.45, 267.58 2.05 M55.41 252.22 C140.63 155.19, 225.6 56.52, 272.56 2.41 M55.41 252.22 C140.32 155.73, 224.79 59.31, 272.56 2.41 M61.05 251.82 C127.32 175.98, 194.02 99.43, 278.21 2.01 M61.05 251.82 C136.62 166.23, 211.1 79.48, 278.21 2.01 M66.04 252.18 C129.88 180.16, 194.7 104.83, 283.19 2.37 M66.04 252.18 C130.26 179.44, 194.15 105.85, 283.19 2.37 M71.68 251.79 C127.17 189.67, 181.37 123.97, 288.84 1.98 M71.68 251.79 C155.51 156.39, 239.37 58.93, 288.84 1.98 M76.67 252.15 C145.47 171.27, 214.95 91.71, 293.82 2.34 M76.67 252.15 C153.72 163.24, 232.23 71.82, 293.82 2.34 M82.31 251.75 C126.09 200.26, 169.59 149.54, 299.47 1.94 M82.31 251.75 C144.36 180.45, 206.55 108.34, 299.47 1.94 M87.3 252.11 C151.53 176.52, 218.16 101.21, 304.45 2.3 M87.3 252.11 C166.91 162, 245.82 71.41, 304.45 2.3 M92.94 251.72 C142.75 195.81, 191.49 140.46, 310.1 1.91 M92.94 251.72 C155.99 177.98, 219.83 104.28, 310.1 1.91 M97.93 252.08 C164.06 175.2, 229.4 99.7, 315.08 2.27 M97.93 252.08 C158.9 182.18, 219.36 113.08, 315.08 2.27 M103.57 251.68 C174 170.99, 242.49 90.83, 320.73 1.88 M103.57 251.68 C186.21 158.56, 266.99 65.03, 320.73 1.88 M108.56 252.04 C157.23 195.33, 205.49 139.53, 325.71 2.24 M108.56 252.04 C174.8 178.18, 238.07 104.18, 325.71 2.24 M114.2 251.65 C165.09 190.83, 218.25 130.18, 331.36 1.84 M114.2 251.65 C198.87 150.69, 286.2 50.92, 331.36 1.84 M119.19 252.01 C162.53 201.89, 207.37 150.12, 336.34 2.2 M119.19 252.01 C171.76 192.68, 223.28 132.94, 336.34 2.2 M124.18 252.37 C182.9 186.07, 240.01 118.59, 341.99 1.81 M124.18 252.37 C203.63 159.32, 284.75 66.15, 341.99 1.81 M129.82 251.98 C173.75 197.01, 220.92 143.49, 346.97 2.17 M129.82 251.98 C201.65 168.84, 273.76 86.26, 346.97 2.17 M134.81 252.34 C221.76 153.8, 307.9 53.52, 352.62 1.77 M134.81 252.34 C177.96 202.46, 221.97 152.08, 352.62 1.77 M140.45 251.94 C194.45 187.27, 247.94 126.17, 357.6 2.13 M140.45 251.94 C188.37 200.11, 234.13 146.68, 357.6 2.13 M145.44 252.3 C230.88 151.89, 315.39 55.14, 363.25 1.74 M145.44 252.3 C215.2 174.03, 282.79 96.53, 363.25 1.74 M151.08 251.91 C231.18 163.21, 307.46 73.24, 368.23 2.1 M151.08 251.91 C225.8 165.96, 300.85 78.28, 368.23 2.1 M156.07 252.27 C225.23 172.45, 295.74 90.2, 373.88 1.7 M156.07 252.27 C211.04 189.38, 264.99 127.27, 373.88 1.7 M161.71 251.87 C208.65 199.74, 253.23 147.77, 378.86 2.06 M161.71 251.87 C207.33 198.79, 252.71 146.04, 378.86 2.06 M166.7 252.23 C212.1 200.33, 258.79 149.75, 383.85 2.42 M166.7 252.23 C225.01 185.82, 282.46 119.65, 383.85 2.42 M172.34 251.84 C237.84 176.17, 305.03 99.22, 389.49 2.03 M172.34 251.84 C234.26 180.23, 296.33 108.44, 389.49 2.03 M177.33 252.2 C261.65 154.12, 348.92 54.06, 394.48 2.39 M177.33 252.2 C251.75 167.1, 326.2 81.4, 394.48 2.39 M182.97 251.8 C267.81 153.1, 353.17 53.73, 400.12 1.99 M182.97 251.8 C246.77 178.76, 308.86 107.39, 400.12 1.99 M187.96 252.16 C269.7 157.31, 351.77 65.63, 405.11 2.35 M187.96 252.16 C264.4 162.56, 342.13 73.59, 405.11 2.35 M193.6 251.77 C248.58 186.74, 303.15 123.08, 410.75 1.96 M193.6 251.77 C265.4 169.49, 338.79 86.94, 410.75 1.96 M198.59 252.13 C276.74 164.84, 353.2 77.03, 415.74 2.32 M198.59 252.13 C270.25 171.17, 340.34 90.36, 415.74 2.32 M204.23 251.73 C267.54 179.22, 328.79 107.84, 421.38 1.93 M204.23 251.73 C281.19 162.86, 360.29 73.22, 421.38 1.93 M209.22 252.09 C275.04 179.33, 337.29 104.37, 426.37 2.29 M209.22 252.09 C289.37 162.48, 366.82 72.26, 426.37 2.29 M214.86 251.7 C289.52 164.01, 365.35 79.9, 432.01 1.89 M214.86 251.7 C286.2 169.97, 356.7 89.78, 432.01 1.89 M219.85 252.06 C279.89 183.45, 338.9 114.37, 437 2.25 M219.85 252.06 C284.87 176.26, 349.5 101.83, 437 2.25 M225.49 251.67 C289.85 175.65, 353.77 99.51, 442.64 1.86 M225.49 251.67 C309.4 155.08, 394.43 57.45, 442.64 1.86 M230.48 252.03 C300.43 170.99, 371.2 88.96, 447.63 2.22 M230.48 252.03 C295.2 176.7, 360.86 102.41, 447.63 2.22 M235.46 252.39 C294.53 183.92, 354.5 115.68, 453.27 1.82 M235.46 252.39 C311.88 165.78, 386.71 79.51, 453.27 1.82 M241.11 251.99 C328.09 154.36, 413.99 54.65, 458.26 2.18 M241.11 251.99 C288.85 198.47, 335.55 143.61, 458.26 2.18 M246.09 252.35 C291.22 199.83, 335.31 148.43, 463.9 1.79 M246.09 252.35 C331.63 154.53, 415.33 57.67, 463.9 1.79 M251.74 251.96 C333.21 157.55, 415.82 61.82, 468.89 2.15 M251.74 251.96 C304.24 190.44, 358.26 128.36, 468.89 2.15 M256.72 252.32 C318.19 181.18, 381.24 109.29, 474.53 1.75 M256.72 252.32 C328.92 169.6, 400.76 86.85, 474.53 1.75 M262.37 251.92 C324.76 178.46, 388.99 105.28, 479.52 2.11 M262.37 251.92 C321.39 183.78, 381.96 114.97, 479.52 2.11 M267.35 252.28 C336.83 172.88, 408.34 92.8, 485.17 1.72 M267.35 252.28 C311.7 200.44, 357.19 147.38, 485.17 1.72 M273 251.89 C338.81 174.1, 406.13 98.59, 490.15 2.08 M273 251.89 C344.07 170.62, 414.61 89.07, 490.15 2.08 M277.98 252.25 C356.49 159.57, 438.49 67.72, 495.8 1.68 M277.98 252.25 C335.91 185.18, 394.42 116.28, 495.8 1.68 M283.63 251.85 C352.33 175.07, 419.03 96.58, 500.78 2.04 M283.63 251.85 C354.33 172.48, 424.78 91.51, 500.78 2.04 M288.61 252.21 C357.33 174.77, 426.7 94.79, 505.77 2.4 M288.61 252.21 C370.44 160.16, 451.95 66.05, 505.77 2.4 M294.26 251.82 C363.92 168.34, 434.38 89.19, 511.41 2.01 M294.26 251.82 C361.34 173.67, 428.54 95.01, 511.41 2.01 M299.24 252.18 C360.59 179.87, 422.16 109.93, 516.4 2.37 M299.24 252.18 C385.91 152.15, 473.06 52.85, 516.4 2.37 M304.89 251.78 C373.57 172.97, 441.87 94.37, 522.04 1.98 M304.89 251.78 C360.7 186.29, 416.17 123.19, 522.04 1.98 M309.87 252.14 C358.57 196.75, 407.01 142.31, 527.03 2.34 M309.87 252.14 C362.22 191.97, 415.2 132.94, 527.03 2.34 M315.52 251.75 C399.28 155.38, 483.04 58.29, 533.98 0.43 M315.52 251.75 C366.63 194.89, 417.22 136.79, 533.98 0.43 M320.5 252.11 C389.76 172.87, 456.82 97.12, 538.32 1.55 M320.5 252.11 C366.08 200.31, 411.14 148.96, 538.32 1.55 M326.15 251.71 C402.05 163.58, 478.62 76, 543.3 1.91 M326.15 251.71 C377.17 195.67, 426.23 139.48, 543.3 1.91 M331.13 252.08 C417.21 154.91, 500.83 59.08, 547.63 3.02 M331.13 252.08 C378.33 197.63, 425.67 143.53, 547.63 3.02 M336.78 251.68 C420.16 158.15, 502.57 62.51, 551.31 4.89 M336.78 251.68 C411.63 164.14, 487.01 76.86, 551.31 4.89 M341.76 252.04 C405.28 178.93, 471.3 104.78, 554.98 6.76 M341.76 252.04 C386.79 196.68, 433.78 143.68, 554.98 6.76 M347.41 251.65 C432.5 156.27, 515.64 60.14, 558.66 8.63 M347.41 251.65 C398.13 196.52, 446.09 139.72, 558.66 8.63 M352.39 252.01 C425.33 168.37, 499.83 86.24, 561.02 12.01 M352.39 252.01 C428.08 164.65, 505.72 74.75, 561.02 12.01 M357.38 252.37 C398.39 203.87, 439.34 156.09, 563.38 15.39 M357.38 252.37 C398.48 206.21, 439.13 157.56, 563.38 15.39 M363.02 251.97 C413.57 192.74, 463.49 133.32, 565.09 19.52 M363.02 251.97 C410.65 195.1, 457.72 141.04, 565.09 19.52 M368.01 252.33 C442.95 163.05, 519.1 78.62, 565.49 25.16 M368.01 252.33 C431.26 179.76, 494.38 106.8, 565.49 25.16 M373.65 251.94 C445.77 170.62, 516.18 87.95, 565.22 31.56 M373.65 251.94 C414.28 205.53, 454.17 159.94, 565.22 31.56 M378.64 252.3 C423.1 201.62, 464.89 152.99, 565.62 37.2 M378.64 252.3 C443.24 175.6, 509.88 99.8, 565.62 37.2 M384.28 251.9 C437.27 187.07, 493.22 125.72, 565.36 43.6 M384.28 251.9 C434.78 193.4, 486.86 134.04, 565.36 43.6 M389.27 252.26 C459.23 173.33, 526.93 91.34, 565.75 49.25 M389.27 252.26 C456.64 172.63, 524.95 93.47, 565.75 49.25 M394.91 251.87 C441.79 198.08, 487.17 142.61, 565.49 55.64 M394.91 251.87 C445.85 195.54, 494.44 138.18, 565.49 55.64 M399.9 252.23 C438.74 208.65, 478.03 163.58, 565.88 61.29 M399.9 252.23 C438.93 208.9, 476.85 165.02, 565.88 61.29 M405.54 251.83 C462.62 187.77, 521.38 121.39, 565.62 67.68 M405.54 251.83 C447.43 203.26, 487.97 157.17, 565.62 67.68 M410.53 252.19 C453.32 204.08, 492.78 158.6, 565.36 74.08 M410.53 252.19 C470.39 180.95, 531.2 110.53, 565.36 74.08 M416.17 251.8 C450.93 210.78, 485.64 170.57, 565.76 79.73 M416.17 251.8 C450.59 210.81, 485.02 170.34, 565.76 79.73 M421.16 252.16 C466.68 201.05, 511.95 149.47, 565.49 86.12 M421.16 252.16 C466.94 199.54, 510.18 149.33, 565.49 86.12 M426.8 251.76 C462.83 213.18, 496.75 171.96, 565.89 91.77 M426.8 251.76 C465.21 204.73, 504.4 160.07, 565.89 91.77 M431.79 252.12 C480.38 196.86, 530.3 138.77, 565.63 98.16 M431.79 252.12 C476.52 203.41, 519.97 153.15, 565.63 98.16 M437.43 251.73 C482.27 197.14, 530.44 146.24, 565.37 104.56 M437.43 251.73 C475.09 208.63, 513.17 165.35, 565.37 104.56 M442.42 252.09 C484.84 207.36, 526.15 157.12, 565.76 110.2 M442.42 252.09 C479.96 208.49, 517.66 163.87, 565.76 110.2 M448.07 251.7 C491.57 199.88, 536.9 149.01, 565.5 116.6 M448.07 251.7 C489.38 204.1, 531.88 155.35, 565.5 116.6 M453.05 252.06 C481.16 218.21, 509.17 186.31, 565.89 122.25 M453.05 252.06 C479.72 220.55, 507.02 189.41, 565.89 122.25 M458.7 251.66 C494.74 209.81, 530.98 170.08, 565.63 128.64 M458.7 251.66 C498.64 203.53, 541 157.54, 565.63 128.64 M463.68 252.02 C495.51 215.03, 524.38 183.59, 566.03 134.29 M463.68 252.02 C484.82 227.48, 506.23 204.02, 566.03 134.29 M468.67 252.38 C495.98 219.53, 523.83 187.23, 565.77 140.68 M468.67 252.38 C497.74 216.94, 527.91 183.52, 565.77 140.68 M474.31 251.99 C510.48 211.39, 543.02 173.22, 565.5 147.08 M474.31 251.99 C494.07 227.66, 516.36 205.13, 565.5 147.08 M479.3 252.35 C510.05 214.96, 542.73 182.1, 565.9 152.73 M479.3 252.35 C500.74 226.6, 525.15 200.05, 565.9 152.73 M484.94 251.95 C515.34 220.45, 544.13 186.1, 565.64 159.12 M484.94 251.95 C502.7 230.73, 521.03 210.32, 565.64 159.12 M489.93 252.31 C508.66 229.97, 530.3 202.63, 566.03 164.77 M489.93 252.31 C505.67 232.83, 522.9 213.16, 566.03 164.77 M495.57 251.92 C509.13 236.89, 521.83 219.03, 565.77 171.16 M495.57 251.92 C513.14 232.23, 530.9 213.65, 565.77 171.16 M500.56 252.28 C514.12 235.5, 529.03 218.68, 566.17 176.81 M500.56 252.28 C523.48 225.42, 546.89 199.37, 566.17 176.81 M506.2 251.88 C521.17 234.59, 535.47 221.93, 565.9 183.2 M506.2 251.88 C520.43 234.01, 535.54 218.14, 565.9 183.2 M511.19 252.24 C531.5 227.56, 552.56 205.61, 565.64 189.6 M511.19 252.24 C525.09 237.81, 538.11 221.52, 565.64 189.6 M516.83 251.85 C530.04 236.46, 547.51 217.26, 566.04 195.25 M516.83 251.85 C532.21 235.07, 545.65 220.37, 566.04 195.25 M521.82 252.21 C530 242.43, 542.67 229.33, 565.78 201.64 M521.82 252.21 C534.53 237.54, 547.67 221.44, 565.78 201.64 M527.46 251.81 C543.3 236.94, 554.97 219.82, 566.17 207.29 M527.46 251.81 C541.72 235.75, 556.1 218.54, 566.17 207.29 M533.76 250.66 C540.38 244.23, 546.1 235.63, 565.91 213.68 M533.76 250.66 C546.16 238.21, 556.17 225.51, 565.91 213.68 M540.06 249.52 C549.87 239.07, 560.24 225.19, 566.3 219.33 M540.06 249.52 C545.46 242.47, 550.13 237.15, 566.3 219.33 M545.7 249.12 C549.28 241.72, 554.9 238.36, 565.39 226.48 M545.7 249.12 C550.41 244.17, 554.49 239.34, 565.39 226.48" stroke="#b2f2bb" stroke-width="0.5" fill="none"></path><path d="M32 0 M32 0 C223.97 1.09, 415.56 0.57, 533.22 0 M32 0 C232.62 -1.22, 432.71 -1.49, 533.22 0 M533.22 0 C554.45 -1.16, 567.14 9.77, 565.22 32 M533.22 0 C555.87 1.21, 565.6 12.59, 565.22 32 M565.22 32 C564.57 88.63, 565.24 142.63, 565.22 217.93 M565.22 32 C565.64 104.79, 565.04 177.65, 565.22 217.93 M565.22 217.93 C566.83 240, 556.26 249.48, 533.22 249.93 M565.22 217.93 C563.09 237.43, 555.02 249.51, 533.22 249.93 M533.22 249.93 C370.39 249.04, 207.37 250.05, 32 249.93 M533.22 249.93 C349.53 249, 164.78 248.7, 32 249.93 M32 249.93 C11.54 250.56, -0.28 238.5, 0 217.93 M32 249.93 C10.8 250.9, -0.11 241.01, 0 217.93 M0 217.93 C1.24 160.06, -0.06 100.66, 0 32 M0 217.93 C0.92 147.3, 1.1 78.01, 0 32 M0 32 C-0.66 10.41, 12.46 -1.26, 32 0 M0 32 C-1.17 11.2, 9.15 -1.11, 32 0" stroke="#1e1e1e" stroke-width="1" fill="none"></path></g><g stroke-linecap="round" transform="translate(694.5107266527052 179.47550260728804) rotate(0 188.72855918850018 68.6261580740561)"><path d="M7.86 8.16 C7.86 8.16, 7.86 8.16, 7.86 8.16 M7.86 8.16 C7.86 8.16, 7.86 8.16, 7.86 8.16 M3.66 19.09 C7.18 14.69, 13.04 7, 18.1 2.48 M3.66 19.09 C7.72 15.34, 11.18 11.57, 18.1 2.48 M2.75 26.24 C12 17.12, 20.01 6.66, 24.4 1.33 M2.75 26.24 C10.74 17.38, 19.55 6.42, 24.4 1.33 M2.48 32.64 C10.69 24.12, 18.1 12.21, 30.7 0.18 M2.48 32.64 C13.02 20.48, 23.45 8.58, 30.7 0.18 M2.88 38.28 C14.65 25.3, 25.07 10.79, 34.37 2.05 M2.88 38.28 C10.74 27.96, 19.82 19.01, 34.37 2.05 M2.62 44.68 C11.81 32.65, 21.42 21.66, 39.36 2.41 M2.62 44.68 C14.67 32.28, 24.16 19.24, 39.36 2.41 M2.36 51.07 C11.11 42.81, 19.06 30.07, 45 2.02 M2.36 51.07 C13.24 37.41, 26.77 24.63, 45 2.02 M2.75 56.72 C20.74 35.59, 35.98 15.71, 49.99 2.38 M2.75 56.72 C17.77 39.4, 31.66 23.01, 49.99 2.38 M2.49 63.11 C16.95 46.77, 29.59 33.11, 55.63 1.98 M2.49 63.11 C14.52 49.7, 26.34 35.71, 55.63 1.98 M2.88 68.76 C19.8 49.67, 38.05 29.12, 60.62 2.34 M2.88 68.76 C15.04 53.69, 27.75 40.95, 60.62 2.34 M2.62 75.16 C26.04 49.53, 50.45 22.05, 66.26 1.95 M2.62 75.16 C20.03 54.51, 36.2 35.89, 66.26 1.95 M2.36 81.55 C20.42 59.81, 43.86 33.57, 71.25 2.31 M2.36 81.55 C23.09 56.75, 44.48 32.05, 71.25 2.31 M2.76 87.2 C29.07 56.13, 56.09 25.34, 76.89 1.91 M2.76 87.2 C22.46 65.15, 40.92 42.98, 76.89 1.91 M2.49 93.59 C26.51 67.91, 46.24 40.32, 81.88 2.27 M2.49 93.59 C25.14 67.64, 48.45 40.07, 81.88 2.27 M2.89 99.24 C20.46 77.71, 42.36 55.38, 87.52 1.88 M2.89 99.24 C32.35 64.12, 64.66 29.18, 87.52 1.88 M2.63 105.64 C22.7 85.05, 40.44 64.18, 92.51 2.24 M2.63 105.64 C24.56 79.55, 48.1 55.49, 92.51 2.24 M1.05 113.54 C38.66 70.76, 76.55 27, 98.15 1.85 M1.05 113.54 C26.01 82.67, 54.09 52.45, 98.15 1.85 M2.76 117.68 C25.37 92.44, 48.32 64.03, 103.14 2.21 M2.76 117.68 C35.57 79.92, 67.62 43.27, 103.14 2.21 M4.47 121.81 C37.33 83.84, 67.47 47.27, 108.78 1.81 M4.47 121.81 C44.76 74.54, 87.77 27.35, 108.78 1.81 M6.17 125.94 C45.82 80.54, 84.54 36, 113.77 2.17 M6.17 125.94 C30.38 98.8, 55.91 69.99, 113.77 2.17 M9.19 128.57 C43.31 88.84, 79.52 46.81, 119.41 1.78 M9.19 128.57 C37.33 95.8, 64.75 63.99, 119.41 1.78 M11.56 131.95 C41.2 100.56, 70.16 66.63, 124.4 2.14 M11.56 131.95 C49.96 87.19, 89.45 42.81, 124.4 2.14 M14.57 134.57 C50.46 91.02, 88.51 52.1, 130.04 1.74 M14.57 134.57 C43.98 98.5, 76.03 62.01, 130.04 1.74 M18.91 135.69 C65.04 84.73, 111.27 29.2, 135.03 2.1 M18.91 135.69 C44.29 105.74, 69.77 77.23, 135.03 2.1 M23.24 136.8 C59.04 93.6, 95.27 55.08, 140.67 1.71 M23.24 136.8 C46.34 108.41, 71.13 80.72, 140.67 1.71 M28.22 137.16 C62.06 99.49, 95.07 61.53, 145.66 2.07 M28.22 137.16 C58 102.69, 87.23 70.44, 145.66 2.07 M32.55 138.28 C65.26 100.53, 96.52 65.37, 150.65 2.43 M32.55 138.28 C73.04 91.93, 113.17 46.51, 150.65 2.43 M38.2 137.88 C69.22 101.35, 99.29 66.74, 156.29 2.03 M38.2 137.88 C66.38 107.31, 93.71 75.81, 156.29 2.03 M43.18 138.24 C75.46 99.58, 108.52 64.69, 161.28 2.39 M43.18 138.24 C70.27 106, 97.06 74.23, 161.28 2.39 M48.83 137.85 C90.53 90.95, 128.13 47.07, 166.92 2 M48.83 137.85 C93.66 86.52, 138.99 36.11, 166.92 2 M53.81 138.21 C93.81 91.32, 135.63 42.47, 171.91 2.36 M53.81 138.21 C101.03 86.61, 147.48 32.53, 171.91 2.36 M59.46 137.81 C93.6 96.05, 131.84 52.37, 177.55 1.96 M59.46 137.81 C97.49 93.04, 134.56 50.04, 177.55 1.96 M64.44 138.17 C94.86 103.76, 127.01 65.89, 182.54 2.32 M64.44 138.17 C93.08 105.55, 120.69 74.4, 182.54 2.32 M70.09 137.78 C95.85 107.86, 123.92 78.36, 188.18 1.93 M70.09 137.78 C104.87 95.8, 140.74 54.04, 188.18 1.93 M75.08 138.14 C110.39 100.95, 142.13 59.6, 193.17 2.29 M75.08 138.14 C107.9 99.53, 143.39 59.13, 193.17 2.29 M80.72 137.74 C123.64 86.48, 168.54 35.77, 198.81 1.9 M80.72 137.74 C128.79 83.94, 175.08 30.83, 198.81 1.9 M85.71 138.1 C116.71 97.42, 152.04 59.95, 203.8 2.26 M85.71 138.1 C132.1 82.43, 177.62 29.21, 203.8 2.26 M91.35 137.71 C123.83 100.75, 157.92 62.12, 209.44 1.86 M91.35 137.71 C122.12 101.61, 154.65 65.36, 209.44 1.86 M96.34 138.07 C141.02 84.32, 188.13 32.53, 214.43 2.22 M96.34 138.07 C132.83 92.95, 170.99 50.37, 214.43 2.22 M101.98 137.67 C137.84 97.11, 171.38 57.12, 220.07 1.83 M101.98 137.67 C128.18 106.1, 154.63 77.08, 220.07 1.83 M106.97 138.03 C141.62 96.93, 175.92 56.29, 225.06 2.19 M106.97 138.03 C148.65 92.72, 188.4 46.24, 225.06 2.19 M112.61 137.64 C135.04 110.8, 159.41 80.2, 230.7 1.79 M112.61 137.64 C153.98 90, 197.13 40.78, 230.7 1.79 M117.6 138 C147.29 104.92, 176.54 69.97, 235.69 2.15 M117.6 138 C145.47 105.76, 173.9 73.63, 235.69 2.15 M123.24 137.6 C153.67 108.28, 178.65 76.93, 241.33 1.76 M123.24 137.6 C147.8 108.64, 171.54 80.39, 241.33 1.76 M128.23 137.96 C153.7 108.34, 176.61 80.77, 246.32 2.12 M128.23 137.96 C166.71 91.04, 206.95 47.25, 246.32 2.12 M133.21 138.33 C161.5 104.6, 190.25 73.02, 251.96 1.72 M133.21 138.33 C171.58 95.74, 208.02 53.02, 251.96 1.72 M138.86 137.93 C170.36 101.61, 202.46 62.04, 256.95 2.08 M138.86 137.93 C166.81 104.53, 196.21 70.83, 256.95 2.08 M143.84 138.29 C182.54 97.78, 216.86 51.72, 262.59 1.69 M143.84 138.29 C168.47 108.82, 196.03 79.08, 262.59 1.69 M149.49 137.9 C182.91 100.81, 215.2 62.84, 267.58 2.05 M149.49 137.9 C186.66 94.53, 222.29 54.15, 267.58 2.05 M154.47 138.26 C200.7 86.44, 247.61 33.31, 272.56 2.41 M154.47 138.26 C192.38 95.77, 229.76 52.81, 272.56 2.41 M160.12 137.86 C207.88 83.59, 252.3 30.39, 278.21 2.01 M160.12 137.86 C205.03 87.56, 251.49 34.03, 278.21 2.01 M165.1 138.22 C192.34 109.17, 215.08 81.84, 283.19 2.37 M165.1 138.22 C208.17 86.98, 252.39 37.24, 283.19 2.37 M170.75 137.83 C207.63 94.78, 244.09 52.35, 288.84 1.98 M170.75 137.83 C197.4 105.12, 225.86 74.75, 288.84 1.98 M175.73 138.19 C221.14 88.01, 263.09 34.17, 293.82 2.34 M175.73 138.19 C222.27 82.72, 270.78 29.49, 293.82 2.34 M181.38 137.79 C215.02 99.25, 248.47 57.82, 299.47 1.94 M181.38 137.79 C222.99 89.91, 264.67 43.56, 299.47 1.94 M186.36 138.15 C224.25 94.92, 265.43 49.24, 304.45 2.3 M186.36 138.15 C212.21 109.7, 238.22 80.92, 304.45 2.3 M192.01 137.76 C227.04 98.63, 258.16 62.72, 310.1 1.91 M192.01 137.76 C232.39 92.66, 271.16 46.9, 310.1 1.91 M196.99 138.12 C235.9 93.97, 273.56 50.76, 315.08 2.27 M196.99 138.12 C225.82 104.67, 256.03 70.37, 315.08 2.27 M202.64 137.72 C250.53 84.16, 293.55 32.37, 320.73 1.88 M202.64 137.72 C238.32 97.75, 274.57 55.77, 320.73 1.88 M207.62 138.08 C238.09 102.02, 265.48 70.85, 325.71 2.24 M207.62 138.08 C249.5 90.03, 294.08 38.66, 325.71 2.24 M213.27 137.69 C243.59 99.95, 277.32 66.18, 331.36 1.84 M213.27 137.69 C245.47 99.63, 281.15 59.75, 331.36 1.84 M218.25 138.05 C251.19 101.53, 279.29 65.44, 336.34 2.2 M218.25 138.05 C244.75 109.63, 270.58 80.15, 336.34 2.2 M223.9 137.65 C255.69 98.75, 288.25 62.47, 341.99 1.81 M223.9 137.65 C251.1 105.55, 278.75 73.65, 341.99 1.81 M228.88 138.01 C264.27 97.07, 300.38 56.83, 347.63 1.41 M228.88 138.01 C263.77 99.49, 297.91 59.31, 347.63 1.41 M234.53 137.62 C272.67 90.62, 312.25 46.33, 351.96 2.53 M234.53 137.62 C257.78 107.82, 283.08 78.81, 351.96 2.53 M239.51 137.98 C284.27 85.75, 329.07 34.35, 356.95 2.89 M239.51 137.98 C272.73 100.01, 305.91 63.66, 356.95 2.89 M244.5 138.34 C279.79 97.45, 313.47 61.07, 361.28 4 M244.5 138.34 C290.5 85.43, 336.89 32.5, 361.28 4 M250.14 137.95 C291.7 92.83, 330.73 50.8, 364.95 5.87 M250.14 137.95 C284.71 97.66, 318.28 60.29, 364.95 5.87 M255.13 138.31 C292.65 97.41, 326.6 56.22, 368.63 7.74 M255.13 138.31 C287.75 100.11, 318.63 64.74, 368.63 7.74 M260.77 137.91 C288.68 109.63, 314.48 78.65, 371.65 10.37 M260.77 137.91 C290.03 104.54, 319.26 71.83, 371.65 10.37 M265.76 138.27 C298.36 98.86, 329.75 60.17, 374.01 13.74 M265.76 138.27 C297.23 101.6, 328.89 66.4, 374.01 13.74 M271.4 137.88 C310.49 93.62, 352.34 47.22, 375.72 17.88 M271.4 137.88 C306.15 98.18, 340.87 58.22, 375.72 17.88 M276.39 138.24 C309.66 100.01, 343.76 59.75, 377.42 22.01 M276.39 138.24 C309.24 101.48, 342.43 63.21, 377.42 22.01 M282.03 137.84 C313.28 102.21, 345.25 66.07, 379.13 26.15 M282.03 137.84 C306.9 107.97, 334.22 78.56, 379.13 26.15 M287.02 138.2 C320.59 100.1, 353.31 61.47, 378.87 32.54 M287.02 138.2 C309.58 111.67, 334.13 85.64, 378.87 32.54 M292.66 137.81 C311.45 116.58, 327.29 95.23, 379.26 38.19 M292.66 137.81 C313.8 114.64, 332.23 90.7, 379.26 38.19 M297.65 138.17 C323.06 107.93, 346.39 80.58, 379 44.58 M297.65 138.17 C315.11 118.15, 333.1 98.15, 379 44.58 M303.29 137.77 C322.99 114.98, 344.85 91.3, 379.4 50.23 M303.29 137.77 C320.95 117.35, 336.48 97.68, 379.4 50.23 M308.28 138.13 C326.67 121.33, 340.11 99.94, 379.14 56.62 M308.28 138.13 C329.25 114.35, 349.84 89.71, 379.14 56.62 M313.92 137.74 C337.21 110.29, 359.71 86.53, 379.53 62.27 M313.92 137.74 C329.85 119.62, 345.3 101.5, 379.53 62.27 M318.91 138.1 C338.99 118.01, 357.15 93.85, 379.27 68.67 M318.91 138.1 C334.3 119.14, 352.03 101.51, 379.27 68.67 M324.55 137.7 C341.61 119.97, 358.17 98.21, 379.01 75.06 M324.55 137.7 C340.86 117.44, 359.28 97.14, 379.01 75.06 M329.54 138.06 C340.65 121.83, 356.33 108.32, 379.4 80.71 M329.54 138.06 C342.98 122.68, 355.39 108.7, 379.4 80.71 M335.18 137.67 C347.23 124.87, 356.36 114.23, 379.14 87.1 M335.18 137.67 C347.35 124.43, 360.49 110.06, 379.14 87.1 M340.17 138.03 C351.1 123.08, 366.13 108, 379.53 92.75 M340.17 138.03 C350.75 126.96, 361.67 114.14, 379.53 92.75 M345.81 137.64 C356.66 123.95, 367.75 111.44, 379.27 99.14 M345.81 137.64 C358.55 122.76, 372.18 107.9, 379.27 99.14 M352.11 136.49 C360.29 126.09, 366.7 118.18, 378.36 106.3 M352.11 136.49 C358.84 128.98, 365.44 121.26, 378.36 106.3 M357.76 136.09 C365.65 128.31, 369.64 122.47, 377.44 113.45 M357.76 136.09 C363.07 129.61, 369.03 122.99, 377.44 113.45 M365.37 133.43 C370.63 128.64, 372.89 125.06, 376.52 120.6 M365.37 133.43 C367.28 131.23, 370.67 127.49, 376.52 120.6 M12.86 133.06 C12.86 133.06, 12.86 133.06, 12.86 133.06 M12.86 133.06 C12.86 133.06, 12.86 133.06, 12.86 133.06 M19.25 133.32 C15.83 132.08, 12.4 127.68, 6.42 122.17 M19.25 133.32 C16.53 130.43, 13.2 128.4, 6.42 122.17 M27.16 134.9 C16.46 124.36, 8.03 117.14, 0.75 111.94 M27.16 134.9 C17.67 127.27, 9.59 119.73, 0.75 111.94 M33.56 135.16 C26.16 130.24, 19.94 123.37, 1.11 106.95 M33.56 135.16 C25.89 127.75, 16.85 121.65, 1.11 106.95 M39.96 135.42 C23.87 124.35, 12.53 112.81, 0.71 101.31 M39.96 135.42 C29.41 127.1, 20.98 119.21, 0.71 101.31 M45.6 135.03 C35.64 127.88, 26.03 117.33, 1.07 96.32 M45.6 135.03 C29.35 122.43, 14.66 108.25, 1.07 96.32 M52 135.29 C35.51 120.13, 19.34 106.66, 0.68 90.68 M52 135.29 C41.95 125.98, 31.41 115.96, 0.68 90.68 M58.4 135.55 C44.67 123.52, 28.67 109.47, 1.04 85.69 M58.4 135.55 C47 125.08, 34.52 115.01, 1.04 85.69 M64.04 135.15 C40.79 113.61, 14.91 92.14, 0.64 80.05 M64.04 135.15 C41.14 115.61, 17.86 95.09, 0.64 80.05 M70.44 135.42 C44.37 114.69, 18.62 92.45, 1 75.06 M70.44 135.42 C49.23 118.8, 30.41 101.21, 1 75.06 M76.08 135.02 C44.68 108.48, 16.13 84.63, 1.36 70.07 M76.08 135.02 C56.94 116.35, 37.88 99.96, 1.36 70.07 M82.48 135.28 C63 117.47, 43.31 98.23, 0.97 64.43 M82.48 135.28 C55.78 113.87, 30.84 90.05, 0.97 64.43 M88.88 135.54 C60.92 111.18, 31.32 86.4, 1.33 59.44 M88.88 135.54 C64.26 113.09, 37.88 91.04, 1.33 59.44 M94.52 135.15 C58.5 103.76, 22.42 72.37, 0.93 53.8 M94.52 135.15 C61.11 105.68, 27.06 76.06, 0.93 53.8 M100.92 135.41 C77.96 113.35, 50.92 92.66, 1.29 48.81 M100.92 135.41 C76.15 112.75, 50.62 91.65, 1.29 48.81 M106.56 135.02 C69.56 101.29, 31.57 70.41, 0.9 43.17 M106.56 135.02 C65.56 97.39, 23.19 61.75, 0.9 43.17 M112.96 135.28 C88.2 112.32, 59.69 87.7, 1.26 38.18 M112.96 135.28 C74.57 102.8, 37.48 70.21, 1.26 38.18 M119.36 135.54 C86.52 105.05, 48.36 75.21, 0.87 32.54 M119.36 135.54 C83.46 104.04, 47.17 73.96, 0.87 32.54 M125 135.14 C95.87 109.27, 68.74 83.99, 1.23 27.55 M125 135.14 C78.57 93.94, 31.62 54.19, 1.23 27.55 M131.4 135.41 C96.71 103.55, 60.51 75.85, 1.59 22.56 M131.4 135.41 C91.81 101.82, 53.79 69.33, 1.59 22.56 M137.04 135.01 C84.17 91.2, 30.33 41.66, 1.95 17.58 M137.04 135.01 C107.99 109.95, 78.47 84.73, 1.95 17.58 M143.44 135.27 C103.47 101.7, 63.41 64.76, 4.57 14.56 M143.44 135.27 C100.68 99.51, 57.76 62.12, 4.57 14.56 M149.83 135.53 C108.43 99.88, 67.06 63.85, 6.44 10.88 M149.83 135.53 C104.29 96.58, 59.5 56.17, 6.44 10.88 M155.48 135.14 C113.02 100.66, 74.77 64.79, 8.31 7.21 M155.48 135.14 C101.61 87.68, 47.88 40.83, 8.31 7.21 M161.88 135.4 C105.63 91.08, 51.79 43.13, 12.44 5.5 M161.88 135.4 C112.02 90.36, 62.53 47.56, 12.44 5.5 M167.52 135.01 C123.16 96.7, 80.41 56.99, 15.82 3.14 M167.52 135.01 C131.33 104.58, 97.12 74.87, 15.82 3.14 M173.92 135.27 C131.79 100.37, 89.62 63.12, 19.2 0.78 M173.92 135.27 C116.6 84.73, 61.61 35.58, 19.2 0.78 M180.31 135.53 C125.52 89.81, 73.19 41.67, 24.09 -0.27 M180.31 135.53 C122.91 85.51, 66.3 36.56, 24.09 -0.27 M185.96 135.13 C137.75 92.69, 89.84 53.69, 29.73 -0.67 M185.96 135.13 C137 94.41, 88.6 52.07, 29.73 -0.67 M192.35 135.4 C131.83 80.9, 69.1 29.27, 33.87 -2.38 M192.35 135.4 C135.73 85.12, 77.36 34.62, 33.87 -2.38 M198 135 C163.12 109.29, 132.84 82.18, 40.26 -2.11 M198 135 C150.13 93.57, 105.46 54.18, 40.26 -2.11 M204.4 135.26 C161.1 97.41, 117.76 60.4, 45.91 -2.51 M204.4 135.26 C153.63 91.84, 102.26 49.22, 45.91 -2.51 M210.79 135.52 C162.26 89.24, 110.79 44.73, 52.3 -2.25 M210.79 135.52 C173.41 100.21, 134.97 68.19, 52.3 -2.25 M216.44 135.13 C185.13 106.55, 151.65 77.31, 58.7 -1.99 M216.44 135.13 C176.81 100.1, 136.73 63.56, 58.7 -1.99 M222.83 135.39 C181.65 103.03, 140.81 64.73, 64.35 -2.38 M222.83 135.39 C172.93 93.19, 124.04 50.55, 64.35 -2.38 M228.48 135 C175.58 89.14, 122.75 43.44, 70.74 -2.12 M228.48 135 C179.48 92.24, 131.58 49.83, 70.74 -2.12 M234.88 135.26 C197.16 101.02, 160.15 66.94, 76.39 -2.51 M234.88 135.26 C193.59 100.5, 151.15 64.09, 76.39 -2.51 M241.27 135.52 C188.59 89.45, 132.4 40.98, 82.78 -2.25 M241.27 135.52 C191.41 91.6, 141.12 49.13, 82.78 -2.25 M246.92 135.13 C192.67 89.48, 138.94 42.88, 89.18 -1.99 M246.92 135.13 C204.73 98.95, 159.97 60.85, 89.18 -1.99 M253.31 135.39 C219.65 105.16, 185.14 76.11, 94.82 -2.39 M253.31 135.39 C214.65 100.83, 176.89 67.33, 94.82 -2.39 M258.96 134.99 C217.73 96.63, 175.41 60.94, 101.22 -2.12 M258.96 134.99 C202.64 84.61, 147.15 36.23, 101.22 -2.12 M265.35 135.25 C214.49 92.67, 165.95 51.05, 106.87 -2.52 M265.35 135.25 C205.39 82.7, 145.88 28.97, 106.87 -2.52 M271.75 135.51 C214.47 88.14, 162.33 38.45, 113.26 -2.26 M271.75 135.51 C223.62 95.25, 174.3 51.95, 113.26 -2.26 M277.4 135.12 C230.56 93.6, 182.82 50.62, 119.66 -2 M277.4 135.12 C228.69 91.71, 179.05 47.69, 119.66 -2 M283.79 135.38 C230.66 86.51, 175.57 40.03, 125.3 -2.39 M283.79 135.38 C225.45 86.2, 169.15 35.15, 125.3 -2.39 M289.44 134.99 C255.74 107, 225.72 79.22, 131.7 -2.13 M289.44 134.99 C234.16 86.2, 176.93 35.54, 131.7 -2.13 M295.83 135.25 C253.62 96.49, 208.76 60.34, 137.35 -2.52 M295.83 135.25 C239.15 85.2, 183 36.7, 137.35 -2.52 M302.23 135.51 C243.74 87.97, 185.84 35.96, 143.74 -2.26 M302.23 135.51 C247.97 88.85, 194.6 42.2, 143.74 -2.26 M307.88 135.12 C248.96 82.95, 191.85 34.64, 150.14 -2 M307.88 135.12 C251.97 85.25, 194.16 35.53, 150.14 -2 M314.27 135.38 C275.56 101.9, 234.77 65.41, 155.78 -2.4 M314.27 135.38 C252.39 81.55, 189.48 27.41, 155.78 -2.4 M319.92 134.98 C270.98 93.95, 223.41 49.71, 162.18 -2.13 M319.92 134.98 C280.9 100.4, 241.65 65.94, 162.18 -2.13 M326.31 135.24 C278.34 96.27, 232.92 52.8, 167.82 -2.53 M326.31 135.24 C265.78 83.25, 203.74 29.1, 167.82 -2.53 M332.71 135.51 C270.31 83.3, 210.9 27.26, 174.22 -2.27 M332.71 135.51 C283.67 92.4, 235.84 50.84, 174.22 -2.27 M338.35 135.11 C299.19 102.15, 261.2 67.78, 180.62 -2.01 M338.35 135.11 C294.56 96.2, 248.85 55.66, 180.62 -2.01 M346.26 136.68 C288.82 89.38, 233.59 38.89, 186.26 -2.4 M346.26 136.68 C308.55 103.3, 270.83 70.97, 186.26 -2.4 M351.15 135.63 C290.7 86.92, 232.97 33.24, 192.66 -2.14 M351.15 135.63 C290.58 81.37, 228.2 29.03, 192.66 -2.14 M356.79 135.24 C294.81 81.37, 235.13 30.17, 198.3 -2.53 M356.79 135.24 C300.67 85.06, 243.53 35.64, 198.3 -2.53 M360.93 133.53 C314.7 93.96, 265.66 53.65, 204.7 -2.27 M360.93 133.53 C318.18 93.74, 272.48 54.99, 204.7 -2.27 M365.82 132.48 C321.67 91.33, 275 53.09, 211.1 -2.01 M365.82 132.48 C331.94 101.33, 298.28 72.09, 211.1 -2.01 M368.44 129.46 C307.99 77.1, 250.47 26.13, 216.74 -2.41 M368.44 129.46 C322.83 89.36, 276.11 48.56, 216.74 -2.41 M371.06 126.44 C322.91 83.63, 277.7 41.66, 223.14 -2.14 M371.06 126.44 C314.66 78.55, 259.91 29.34, 223.14 -2.14 M373.69 123.43 C328.58 85.96, 283.75 45.86, 228.78 -2.54 M373.69 123.43 C331 86.59, 290.11 50.91, 228.78 -2.54 M375.56 119.75 C326.35 78.48, 278.37 37.47, 235.18 -2.28 M375.56 119.75 C322.48 72.5, 271.06 26.39, 235.18 -2.28 M378.18 116.73 C336.99 81.08, 294.58 46.38, 241.58 -2.02 M378.18 116.73 C327.56 72.65, 275.07 27.91, 241.58 -2.02 M378.54 111.74 C340.67 80.93, 307.29 51.23, 247.22 -2.41 M378.54 111.74 C349.17 87.63, 318.77 61.94, 247.22 -2.41 M378.9 106.76 C339.41 72.1, 301.92 40.31, 253.62 -2.15 M378.9 106.76 C347.63 80.25, 318.55 54.54, 253.62 -2.15 M380.02 102.43 C348.38 76.79, 314.51 48.32, 259.26 -2.54 M380.02 102.43 C342.06 68.5, 304.26 34.26, 259.26 -2.54 M379.62 96.78 C354.79 73.06, 328.04 50.71, 265.66 -2.28 M379.62 96.78 C349.44 68.99, 318.38 42.67, 265.66 -2.28 M379.98 91.8 C345.64 63.77, 314.29 37.32, 272.06 -2.02 M379.98 91.8 C351.44 68.96, 324.07 43.75, 272.06 -2.02 M379.59 86.15 C351.81 64.28, 324.76 39.76, 277.7 -2.41 M379.59 86.15 C343.47 56.03, 307.89 24.02, 277.7 -2.41 M379.95 81.17 C344.13 48.47, 305.48 17.45, 284.1 -2.15 M379.95 81.17 C352.43 56.98, 324.28 31.87, 284.1 -2.15 M379.55 75.52 C361.18 60.01, 344.13 42.94, 289.74 -2.55 M379.55 75.52 C353.13 52.16, 324.76 27.09, 289.74 -2.55 M379.91 70.54 C345.23 42.01, 314.35 12.07, 296.14 -2.29 M379.91 70.54 C357.92 52.61, 336.23 31.85, 296.14 -2.29 M379.52 64.89 C352.35 43.1, 330.24 20.48, 302.54 -2.03 M379.52 64.89 C359.72 46.74, 338.5 29.17, 302.54 -2.03 M379.88 59.91 C352.78 33.93, 323.41 11.94, 308.18 -2.42 M379.88 59.91 C362.95 46.9, 347.3 32.8, 308.18 -2.42 M379.48 54.26 C361.9 39.55, 345.34 23.38, 314.58 -2.16 M379.48 54.26 C363.07 39.46, 345.29 24.59, 314.58 -2.16 M379.84 49.28 C362.66 34.59, 343.18 18.82, 320.22 -2.55 M379.84 49.28 C363.13 35.85, 348.52 21.65, 320.22 -2.55 M379.45 43.63 C361.13 25.11, 340.07 9.42, 326.62 -2.29 M379.45 43.63 C365.6 30.98, 350.23 18.01, 326.62 -2.29 M379.81 38.65 C366.08 28.81, 354.74 18, 333.02 -2.03 M379.81 38.65 C367.57 27.91, 354.19 15.79, 333.02 -2.03 M379.42 33 C365.76 21.8, 351.91 7.24, 338.66 -2.42 M379.42 33 C365.03 21.06, 349.88 8.27, 338.66 -2.42 M379.78 28.02 C370.9 20.64, 358.98 11.5, 346.57 -0.85 M379.78 28.02 C368.36 16.94, 355.74 7.94, 346.57 -0.85 M379.38 22.37 C371.65 16.73, 368.95 12.13, 353.72 0.07 M379.38 22.37 C371.57 14.51, 363.13 7.36, 353.72 0.07 M373.7 12.14 C371.07 8.18, 368.85 8.46, 360.87 0.98 M373.7 12.14 C370.76 9.4, 367.63 7.19, 360.87 0.98" stroke="#d0bfff" stroke-width="0.5" fill="none"></path><path d="M32 0 M32 0 C153.05 1.38, 271.77 1.29, 345.46 0 M32 0 C120.03 1.16, 207.27 0.79, 345.46 0 M345.46 0 C366.07 -0.67, 378.96 12.41, 377.46 32 M345.46 0 C366.6 0.67, 375.16 9.93, 377.46 32 M377.46 32 C378.94 48.52, 378.75 64.02, 377.46 105.25 M377.46 32 C376.19 55.85, 376.2 78.24, 377.46 105.25 M377.46 105.25 C378.39 125.51, 366.28 137.43, 345.46 137.25 M377.46 105.25 C376.26 127.79, 367.68 136.56, 345.46 137.25 M345.46 137.25 C221.74 138.75, 98.52 138.67, 32 137.25 M345.46 137.25 C245.92 137.85, 146.38 137.95, 32 137.25 M32 137.25 C9.77 136.31, 1.88 127.26, 0 105.25 M32 137.25 C12.33 138.07, -1.63 126.32, 0 105.25 M0 105.25 C0.11 90.13, 2.23 72.74, 0 32 M0 105.25 C-0.87 82.57, -0.79 58.06, 0 32 M0 32 C1.84 11.74, 10.6 0.93, 32 0 M0 32 C-0.42 12.7, 9.17 -0.84, 32 0" stroke="#1e1e1e" stroke-width="1" fill="none"></path></g><g transform="translate(762.7393850233343 235.60166068134413) rotate(0 120.4999008178711 12.5)"><text x="120.4999008178711" y="0" font-family="Virgil, Segoe UI Emoji" font-size="20px" fill="#1e1e1e" text-anchor="middle" style="white-space: pre;" direction="ltr" dominant-baseline="text-before-edge">Confidential Data Store</text></g><g stroke-linecap="round" transform="translate(486.5595685579399 58.700849646229926) rotate(0 440.94581937092653 337.04543715866225)"><path d="M32 0 M32 0 C312.38 -3.62, 592.74 -2.77, 849.89 0 M32 0 C231.28 3.09, 430.24 3.19, 849.89 0 M849.89 0 C871.38 -0.35, 880.91 12.04, 881.89 32 M849.89 0 C872.38 1.08, 879.85 10, 881.89 32 M881.89 32 C879.23 234.19, 880.18 435.36, 881.89 642.09 M881.89 32 C884.38 222.36, 883.73 412.18, 881.89 642.09 M881.89 642.09 C881.94 663.67, 869.34 673.42, 849.89 674.09 M881.89 642.09 C882.35 661.67, 870.21 674.9, 849.89 674.09 M849.89 674.09 C557.2 671.98, 263 671.76, 32 674.09 M849.89 674.09 C565.78 673, 281.44 672.47, 32 674.09 M32 674.09 C11.13 675.01, -0.44 662.81, 0 642.09 M32 674.09 C12.02 673.65, -0.86 662.23, 0 642.09 M0 642.09 C-1.33 481.32, -1.24 319.34, 0 32 M0 642.09 C0.39 511.44, 0.41 380.65, 0 32 M0 32 C-0.38 12.31, 10.82 0.52, 32 0 M0 32 C0.66 8.9, 8.56 -0.5, 32 0" stroke="#9c36b5" stroke-width="1" fill="none"></path></g><g transform="translate(596.641262825694 123.48907923991874) rotate(0 27.22998809814453 12.5)"><text x="0" y="0" font-family="Virgil, Segoe UI Emoji" font-size="20px" fill="#1e1e1e" text-anchor="start" style="white-space: pre;" direction="ltr" dominant-baseline="text-before-edge">MEVM</text></g><g stroke-linecap="round"><g transform="translate(1111.1585867148228 190.66992705576058) rotate(0 173.26184754115195 0.33407115978343427)"><path d="M-0.07 1.09 C57.78 1.32, 289.79 1.32, 348.1 1.31 M-1.57 0.61 C56 0.49, 288.39 -0.9, 346.92 -0.61" stroke="#1e1e1e" stroke-width="1" fill="none"></path></g><g transform="translate(1111.1585867148228 190.66992705576058) rotate(0 173.26184754115195 0.33407115978343427)"><path d="M320.55 8.95 C330.09 7.79, 340.27 2.24, 347.16 -1.33 M319.62 10.14 C326.96 6.54, 336.04 3.17, 347.61 -0.46" stroke="#1e1e1e" stroke-width="1" fill="none"></path></g><g transform="translate(1111.1585867148228 190.66992705576058) rotate(0 173.26184754115195 0.33407115978343427)"><path d="M320.52 -11.57 C330.05 -4.94, 340.25 -2.71, 347.16 -1.33 M319.59 -10.38 C326.85 -7.37, 335.93 -4.12, 347.61 -0.46" stroke="#1e1e1e" stroke-width="1" fill="none"></path></g></g><mask></mask><g stroke-linecap="round" transform="translate(1475.9745896173167 68.37367539764728) rotate(0 113.0982062056122 123.43604816871084)"><path d="M32.3 -1.76 L194.05 -0.32 L209.42 0.32 L215.56 3.2 L220.23 13.45 L222.79 17.34 L225.65 32.95 L226.11 215.14 L223.73 230.7 L219.73 233.2 L212.33 242.15 L207.66 243.94 L195.11 246.54 L33.02 246.57 L16.85 243.95 L14.35 240.51 L5.74 234.63 L1.39 227.36 L1.18 213.02 L1.9 24.02 L2.1 18.39 L9.97 6.72 L17.72 1.28 L33.47 0.25" stroke="none" stroke-width="0" fill="#e9ecef"></path><path d="M32 0 M32 0 C64.09 2.69, 98.05 -0.49, 194.2 0 M32 0 C83.66 -0.79, 134.57 -1.21, 194.2 0 M194.2 0 C217 -1.1, 224.97 9.55, 226.2 32 M194.2 0 C213.65 0.62, 226.69 9.41, 226.2 32 M226.2 32 C229 94.81, 229.93 161.95, 226.2 214.87 M226.2 32 C226.67 78.97, 227.36 126.02, 226.2 214.87 M226.2 214.87 C224.7 238.11, 215.7 247.35, 194.2 246.87 M226.2 214.87 C227.78 238.08, 214.13 245.56, 194.2 246.87 M194.2 246.87 C160.22 246.37, 128.62 246.24, 32 246.87 M194.2 246.87 C141.78 246.31, 90.33 246.85, 32 246.87 M32 246.87 C11.34 246.51, -0.26 235.27, 0 214.87 M32 246.87 C9.05 248.37, -1.46 236.12, 0 214.87 M0 214.87 C1.44 160.09, 2.64 108.81, 0 32 M0 214.87 C0.51 170.88, 0.84 127.2, 0 32 M0 32 C1.64 10.62, 11.31 0.44, 32 0 M0 32 C-1.4 12, 9.28 1.63, 32 0" stroke="#1e1e1e" stroke-width="1" fill="none"></path></g><g transform="translate(1525.512851670097 179.30972356635812) rotate(0 63.55994415283203 12.5)"><text x="63.55994415283203" y="0" font-family="Virgil, Segoe UI Emoji" font-size="20px" fill="#1e1e1e" text-anchor="middle" style="white-space: pre;" direction="ltr" dominant-baseline="text-before-edge">Block Builder</text></g><g transform="translate(1272.0755757858876 168.3813174718216) rotate(0 29.219970703125 12.5)"><text x="0" y="0" font-family="Virgil, Segoe UI Emoji" font-size="20px" fill="#1e1e1e" text-anchor="start" style="white-space: pre;" direction="ltr" dominant-baseline="text-before-edge">bundle</text></g><g stroke-linecap="round" transform="translate(998.0989454929295 509.3291353667378) rotate(0 123.68022429922542 69.42123660667949)"><path d="M7.86 8.16 C7.86 8.16, 7.86 8.16, 7.86 8.16 M7.86 8.16 C7.86 8.16, 7.86 8.16, 7.86 8.16 M3.66 19.09 C7.6 15.04, 9.41 12.75, 18.1 2.48 M3.66 19.09 C9.12 13.16, 15.18 5.71, 18.1 2.48 M2.75 26.24 C8.16 18.88, 13.81 12.87, 24.4 1.33 M2.75 26.24 C9 17.75, 16.96 9.51, 24.4 1.33 M2.48 32.64 C11.24 24.62, 18.15 15.71, 30.7 0.18 M2.48 32.64 C12.11 22.15, 20.44 12.37, 30.7 0.18 M2.88 38.28 C14.7 26.6, 22.8 15.5, 34.37 2.05 M2.88 38.28 C16.02 23.82, 27.5 9.8, 34.37 2.05 M2.62 44.68 C14.81 29.93, 24.96 16.85, 39.36 2.41 M2.62 44.68 C10.06 34.67, 18.87 24.9, 39.36 2.41 M2.36 51.07 C18.38 33.81, 32.49 20.06, 45 2.02 M2.36 51.07 C17.85 34.93, 31.24 18.52, 45 2.02 M2.75 56.72 C16.35 42.33, 27.7 26.72, 49.99 2.38 M2.75 56.72 C22.29 34.16, 40.21 12.73, 49.99 2.38 M2.49 63.11 C24.31 39.68, 42.95 16.87, 55.63 1.98 M2.49 63.11 C17.57 44.41, 34.31 26.28, 55.63 1.98 M2.88 68.76 C20.79 50.6, 39.47 27.47, 60.62 2.34 M2.88 68.76 C23.55 44.69, 43.72 21.13, 60.62 2.34 M2.62 75.16 C25.57 49.11, 49.68 23.51, 66.26 1.95 M2.62 75.16 C25.23 49.87, 47.47 23.97, 66.26 1.95 M2.36 81.55 C23.42 59.55, 42.81 35.75, 71.25 2.31 M2.36 81.55 C22.62 59.72, 40 37.74, 71.25 2.31 M2.76 87.2 C20.24 68.48, 36.71 47.88, 76.89 1.91 M2.76 87.2 C22.55 63.2, 43.15 39.31, 76.89 1.91 M2.49 93.59 C27.71 66.01, 46.81 41.22, 81.88 2.27 M2.49 93.59 C30.27 63.32, 55.75 31.4, 81.88 2.27 M2.89 99.24 C33.47 65.01, 61.55 31.44, 87.52 1.88 M2.89 99.24 C23.98 76.51, 43.67 54.04, 87.52 1.88 M2.63 105.64 C22.32 85.32, 41.55 61.24, 92.51 2.24 M2.63 105.64 C39.97 64.9, 75.48 22.75, 92.51 2.24 M2.37 112.03 C24.37 83.25, 49.9 59.72, 98.15 1.85 M2.37 112.03 C31.35 80.05, 59.54 47.23, 98.15 1.85 M3.42 116.92 C35.55 83.59, 67.12 45.24, 103.14 2.21 M3.42 116.92 C34.06 82.75, 63.49 46.9, 103.14 2.21 M5.12 121.06 C39.87 81.05, 75.91 40.94, 108.78 1.81 M5.12 121.06 C33.4 89.92, 60.98 59, 108.78 1.81 M5.52 126.7 C42.88 86.14, 77.49 41.71, 113.77 2.17 M5.52 126.7 C46.32 79.7, 85.02 35.8, 113.77 2.17 M7.88 130.08 C51.26 79.12, 97.95 29.81, 119.41 1.78 M7.88 130.08 C39.54 93.76, 72.58 56.35, 119.41 1.78 M10.9 132.7 C55.56 79.14, 100.02 26.2, 124.4 2.14 M10.9 132.7 C45.92 92.52, 79.74 50.55, 124.4 2.14 M13.92 135.33 C44.57 101.03, 72.72 69.32, 130.04 1.74 M13.92 135.33 C44.21 101.51, 72.14 70.7, 130.04 1.74 M17.59 137.2 C50.75 100.91, 79.9 67.01, 135.03 2.1 M17.59 137.2 C55.73 93.7, 92.57 51.5, 135.03 2.1 M21.92 138.31 C60.78 93.67, 98.81 51.83, 140.67 1.71 M21.92 138.31 C62.5 91.21, 104.15 43.76, 140.67 1.71 M26.26 139.42 C58.85 104.42, 88.4 69.39, 145.66 2.07 M26.26 139.42 C74.26 86.62, 118.96 31.73, 145.66 2.07 M31.9 139.03 C61.81 106.69, 91.14 70.75, 150.65 2.43 M31.9 139.03 C71.58 92.81, 111.35 47.16, 150.65 2.43 M37.54 138.64 C61.61 108.32, 86.61 82.19, 156.29 2.03 M37.54 138.64 C80.57 89.41, 123.42 41.57, 156.29 2.03 M42.53 139 C79.32 95.06, 113.21 54.96, 161.28 2.39 M42.53 139 C76.5 101.15, 111.53 60.18, 161.28 2.39 M48.17 138.6 C77.76 104.01, 104.38 73.54, 166.92 2 M48.17 138.6 C83.26 97.66, 118.44 58, 166.92 2 M53.16 138.96 C96.29 88.29, 139.53 43.17, 171.91 2.36 M53.16 138.96 C82.2 105.82, 108.97 73.58, 171.91 2.36 M58.8 138.57 C85.81 107.02, 110.55 73.66, 177.55 1.96 M58.8 138.57 C96.09 94.13, 135.31 49.16, 177.55 1.96 M63.79 138.93 C98.94 100.84, 131.74 58.89, 182.54 2.32 M63.79 138.93 C100.94 95.73, 138.22 52.08, 182.54 2.32 M69.43 138.53 C109.75 91.54, 151.1 46.2, 188.18 1.93 M69.43 138.53 C114.06 88.55, 158.13 37.44, 188.18 1.93 M74.42 138.89 C98.79 111.77, 124.36 82.77, 193.17 2.29 M74.42 138.89 C99.61 109.98, 124.15 81.16, 193.17 2.29 M80.06 138.5 C112 104.96, 142.92 68.12, 198.81 1.9 M80.06 138.5 C106.35 109.66, 132.52 79.9, 198.81 1.9 M85.05 138.86 C111.43 104.2, 143.84 71.42, 203.8 2.26 M85.05 138.86 C125.02 91.51, 167.76 42.86, 203.8 2.26 M90.04 139.22 C113.46 111.7, 140.74 80.83, 209.44 1.86 M90.04 139.22 C120.29 102.81, 152.76 66.35, 209.44 1.86 M95.68 138.82 C135.94 91.98, 176.67 46.81, 215.74 0.71 M95.68 138.82 C127.95 101.56, 160.61 66.35, 215.74 0.71 M100.67 139.18 C133.68 98.14, 169.74 57.42, 220.72 1.07 M100.67 139.18 C144.59 88.12, 190.11 35.87, 220.72 1.07 M106.31 138.79 C132.51 109.53, 160.78 76.73, 225.06 2.19 M106.31 138.79 C139.19 102.08, 171.03 65.81, 225.06 2.19 M111.3 139.15 C150.17 90.47, 192.17 45.02, 228.73 4.06 M111.3 139.15 C136.26 110.7, 160.31 81.52, 228.73 4.06 M116.94 138.75 C149.25 99.13, 187.03 60.57, 233.06 5.17 M116.94 138.75 C160.1 90.06, 200.55 42.41, 233.06 5.17 M121.93 139.11 C161.52 94.34, 197.54 49.46, 237.39 6.29 M121.93 139.11 C155.71 99.68, 188.93 60.66, 237.39 6.29 M127.57 138.72 C161.12 99.52, 196.94 56.86, 239.76 9.66 M127.57 138.72 C162.57 96.98, 197.06 56.69, 239.76 9.66 M132.56 139.08 C164.63 99.82, 199.04 62.01, 242.77 12.29 M132.56 139.08 C173.63 92.26, 215.19 45.48, 242.77 12.29 M138.2 138.69 C167.58 104.28, 201 66.58, 245.79 14.91 M138.2 138.69 C159.55 113.41, 180.76 88.97, 245.79 14.91 M143.19 139.05 C167.42 108.6, 195.12 80.48, 246.84 19.8 M143.19 139.05 C167.29 112.2, 189.02 85.15, 246.84 19.8 M148.83 138.65 C172.73 110.97, 197.13 83.75, 247.89 24.69 M148.83 138.65 C173.88 109.09, 200.13 78.58, 247.89 24.69 M153.82 139.01 C179.49 110.02, 202.54 80.05, 248.29 30.33 M153.82 139.01 C179.29 109.75, 205.64 81.4, 248.29 30.33 M159.46 138.62 C193.14 95.78, 231.19 54.32, 250 34.47 M159.46 138.62 C181.93 114.45, 204.2 87.82, 250 34.47 M164.45 138.98 C196.88 100.37, 228.97 63.87, 250.39 40.11 M164.45 138.98 C195.32 102.43, 224.95 68.75, 250.39 40.11 M170.09 138.58 C185.38 119.02, 201.21 103.32, 250.13 46.51 M170.09 138.58 C190.4 115.96, 211.28 92.94, 250.13 46.51 M175.08 138.94 C198.57 114.62, 218.68 87.76, 249.87 52.9 M175.08 138.94 C201.94 107.73, 230.51 76.2, 249.87 52.9 M180.72 138.55 C202.85 115.01, 224.55 86.96, 250.26 58.55 M180.72 138.55 C200.74 115.16, 222.18 90.58, 250.26 58.55 M185.71 138.91 C203.84 115.95, 220.99 95.92, 250 64.95 M185.71 138.91 C199.55 120.71, 215.87 104.62, 250 64.95 M191.35 138.51 C204.12 124.59, 215.54 106.9, 250.4 70.59 M191.35 138.51 C212.51 114.46, 233.31 91.62, 250.4 70.59 M196.34 138.87 C214.17 120.3, 226.48 102.35, 250.13 76.99 M196.34 138.87 C213.28 120.7, 229.81 102.9, 250.13 76.99 M201.32 139.23 C211.14 127.62, 223.4 115.12, 249.87 83.38 M201.32 139.23 C215.71 121.6, 230.92 103.1, 249.87 83.38 M206.97 138.84 C217.01 127.54, 223.96 120.98, 250.27 89.03 M206.97 138.84 C223.06 120.92, 237.81 103.83, 250.27 89.03 M211.95 139.2 C226.14 119.84, 240.28 103.7, 250.01 95.43 M211.95 139.2 C219.49 129.99, 226.85 119.82, 250.01 95.43 M216.94 139.56 C231.59 125.9, 242.37 110.38, 250.4 101.07 M216.94 139.56 C223.3 130.59, 230.92 121.51, 250.4 101.07 M222.58 139.16 C231.92 129.39, 240.03 123.14, 249.48 108.22 M222.58 139.16 C227.56 132.3, 234.84 126.26, 249.48 108.22 M229.54 137.26 C237.46 130.29, 246.43 118.11, 248.57 115.37 M229.54 137.26 C236.06 128.85, 242.71 122.17, 248.57 115.37" stroke="#ffec99" stroke-width="0.5" fill="none"></path><path d="M32 0 M32 0 C79.75 -0.39, 123.18 2.22, 215.36 0 M32 0 C70.1 1.14, 107.62 0.4, 215.36 0 M215.36 0 C234.94 0.29, 248.28 9.35, 247.36 32 M215.36 0 C236.05 -1.84, 249.56 9.96, 247.36 32 M247.36 32 C249.08 52.56, 246.1 73.1, 247.36 106.84 M247.36 32 C245.88 46.25, 246.18 61.82, 247.36 106.84 M247.36 106.84 C248.53 128.47, 237.28 139.89, 215.36 138.84 M247.36 106.84 C249.17 126.46, 238.8 138.79, 215.36 138.84 M215.36 138.84 C166.39 140.17, 115.18 140.81, 32 138.84 M215.36 138.84 C149.38 137.61, 83.18 137.32, 32 138.84 M32 138.84 C11.31 139.76, 0.83 129.81, 0 106.84 M32 138.84 C10.29 138.11, 0.96 126.32, 0 106.84 M0 106.84 C-1.67 80.58, 0.85 52.51, 0 32 M0 106.84 C0.54 80.71, 0.73 53.99, 0 32 M0 32 C-0.18 10.62, 9.09 -1.97, 32 0 M0 32 C0.3 10.97, 9.9 1.76, 32 0" stroke="#1e1e1e" stroke-width="1" fill="none"></path></g><g transform="translate(1048.7092463912759 553.7503719734173) rotate(0 73.0699234008789 25)"><text x="73.0699234008789" y="0" font-family="Virgil, Segoe UI Emoji" font-size="20px" fill="#1e1e1e" text-anchor="middle" style="white-space: pre;" direction="ltr" dominant-baseline="text-before-edge">Domain-Specific</text><text x="73.0699234008789" y="25" font-family="Virgil, Segoe UI Emoji" font-size="20px" fill="#1e1e1e" text-anchor="middle" style="white-space: pre;" direction="ltr" dominant-baseline="text-before-edge">Services</text></g><g stroke-linecap="round"><g transform="translate(1021.3736978396519 497.1143195035297) rotate(0 0.25943365380589967 -75.7259359283305)"><path d="M0.75 -1.15 C0.99 -26.39, 0.61 -127.08, 0.55 -152.31 M-0.31 0.86 C-0.1 -24.11, -0.09 -125.42, -0.06 -150.79" stroke="#1e1e1e" stroke-width="1" fill="none"></path></g><g transform="translate(1021.3736978396519 497.1143195035297) rotate(0 0.25943365380589967 -75.7259359283305)"><path d="M-11.45 -28.23 C-7.41 -22.07, -5.39 -18.31, 2.47 -1.05 M-10.36 -29.61 C-6.77 -20.55, -4.25 -14.07, -0.01 -2.04" stroke="#1e1e1e" stroke-width="1" fill="none"></path></g><g transform="translate(1021.3736978396519 497.1143195035297) rotate(0 0.25943365380589967 -75.7259359283305)"><path d="M9.07 -28.25 C8.39 -21.96, 5.69 -18.19, 2.47 -1.05 M10.16 -29.63 C8.01 -20.71, 4.79 -14.22, -0.01 -2.04" stroke="#1e1e1e" stroke-width="1" fill="none"></path></g></g><mask></mask><g stroke-linecap="round"><g transform="translate(1061.625636821019 492.7752125583029) rotate(0 -0.21043586739358489 -76.13960904182682)"><path d="M-0.86 1.07 C-0.82 -24.3, 0.44 -127.7, 0.44 -153.35" stroke="#1e1e1e" stroke-width="1.5" fill="none" stroke-dasharray="8 9"></path></g><g transform="translate(1061.625636821019 492.7752125583029) rotate(0 -0.21043586739358489 -76.13960904182682)"><path d="M12.28 -124.16 C5.79 -135.43, 3.51 -143.45, 1.09 -154.03" stroke="#1e1e1e" stroke-width="1.5" fill="none"></path></g><g transform="translate(1061.625636821019 492.7752125583029) rotate(0 -0.21043586739358489 -76.13960904182682)"><path d="M-8.24 -124.3 C-8.2 -135.37, -3.94 -143.36, 1.09 -154.03" stroke="#1e1e1e" stroke-width="1.5" fill="none"></path></g></g><mask></mask><g transform="translate(1095.6028364155773 402.3455841987279) rotate(0 96.44794464111328 20)"><text x="96.44794464111328" y="0" font-family="Virgil, Segoe UI Emoji" font-size="16px" fill="#1e1e1e" text-anchor="middle" style="white-space: pre;" direction="ltr" dominant-baseline="text-before-edge">simulate bundle against </text><text x="96.44794464111328" y="20" font-family="Virgil, Segoe UI Emoji" font-size="16px" fill="#1e1e1e" text-anchor="middle" style="white-space: pre;" direction="ltr" dominant-baseline="text-before-edge">L1 chain</text></g><g stroke-linecap="round"><g transform="translate(627.350724333706 437.43326330655145) rotate(0 0.3351162949902573 -48.01727032586996)"><path d="M0.57 -0.94 C0.5 -17.13, -0.55 -81.5, -0.81 -97.22 M-0.58 1.19 C-0.25 -14.87, 1.15 -79.76, 1.48 -96.14" stroke="#1e1e1e" stroke-width="1" fill="none"></path></g><g transform="translate(627.350724333706 437.43326330655145) rotate(0 0.3351162949902573 -48.01727032586996)"><path d="M-11.63 -30.33 C-8.64 -23.06, -2.55 -13.33, 2.48 -1.61 M-9.13 -28.09 C-8.23 -20.15, -4.97 -12.94, 1.32 -1.14" stroke="#1e1e1e" stroke-width="1" fill="none"></path></g><g transform="translate(627.350724333706 437.43326330655145) rotate(0 0.3351162949902573 -48.01727032586996)"><path d="M8.89 -30.61 C6.31 -23.17, 6.85 -13.36, 2.48 -1.61 M11.39 -28.37 C6.41 -20.2, 3.79 -12.9, 1.32 -1.14" stroke="#1e1e1e" stroke-width="1" fill="none"></path></g></g><mask></mask><g transform="translate(659.4789076137693 365.1788307099505) rotate(0 107.7999267578125 20)"><text x="0" y="0" font-family="Virgil, Segoe UI Emoji" font-size="16px" fill="#1e1e1e" text-anchor="start" style="white-space: pre;" direction="ltr" dominant-baseline="text-before-edge">publish confidential compute</text><text x="0" y="20" font-family="Virgil, Segoe UI Emoji" font-size="16px" fill="#1e1e1e" text-anchor="start" style="white-space: pre;" direction="ltr" dominant-baseline="text-before-edge">result onchain</text></g></svg>